<svg version="1.2" xmlns="http://www.w3.org/2000/svg" viewBox="0 0 840 872" width="840" height="872">
	<title>6511994</title>
	<style>
		.s0 { fill: #ebebeb } 
		.s1 { fill: #ffffff } 
		.s2 { fill: #dbdbdb } 
		.s3 { fill: #c7c7c7 } 
		.s4 { fill: #a6a6a6 } 
		.s5 { fill: #ffc727 } 
		.s6 { fill: #263238 } 
		.s7 { opacity: .1;fill: #263238 } 
		.s8 { opacity: .2;fill: #000000 } 
		.s9 { fill: #455a64 } 
		.s10 { fill: #ad6359 } 
		.s11 { fill: #37474f } 
		.s12 { opacity: .1;fill: #000000 } 
		.s13 { fill: #ff9abb } 
	</style>
	<g id="Background Complete">
		<g id="&lt;Group&gt;">
			<path id="&lt;Path&gt;" class="s0" d="m136.9 741.5h-70.4v-22.4h70.4z"/>
			<path id="&lt;Path&gt;" class="s0" d="m544.2 383.9h-70.3v-22.3h70.3z"/>
			<g id="&lt;Group&gt;">
				<path id="&lt;Compound Path&gt;" fill-rule="evenodd" class="s0" d="m97.6 769.7l-34.9 0.6-17.6 0.2-17.8 0.1h-0.9v-0.9l-0.1-22.4v-1h1l35.2 0.1 17.6 0.2 17.5 0.2h0.5v0.5zm0 0l-0.5-21.9-17.1 0.2-17.5 0.2-34.2 0.1-0.1 20.5 16.5 0.1 17.5 0.2zm-0.5-21.9h0.5l-0.5-0.5zm-68.8 0.5v-0.9l-1 1zm-0.1 20.4h-0.9l0.9 0.9z"/>
			</g>
			<g id="&lt;Group&gt;">
				<path id="&lt;Compound Path&gt;" fill-rule="evenodd" class="s0" d="m546.3 626.8l-34.9 0.6-17.7 0.2-17.7 0.1h-0.9v-0.9l-0.1-22.4v-1h1l35.1 0.1 17.6 0.2 17.6 0.2h0.5v0.5zm0 0l-0.5-21.9-17.1 0.2-17.6 0.2-34.1 0.1-0.1 20.5 16.5 0.1 17.5 0.2zm-0.5-21.9h0.5l-0.5-0.5zm-68.8 0.6v-1l-1 1zm-0.1 20.4h-0.9l0.9 0.9z"/>
			</g>
			<g id="&lt;Group&gt;">
				<path id="&lt;Compound Path&gt;" fill-rule="evenodd" class="s0" d="m507.1 655l-34.9 0.6-17.7 0.2-17.7 0.1h-0.9v-0.9l-0.1-22.4v-1h1l35.1 0.2 17.6 0.1 17.6 0.3h0.5v0.4zm0 0l-0.5-21.9-17.1 0.2-17.6 0.2-34.2 0.1v20.5l16.5 0.1 17.5 0.2zm-0.5-21.9h0.5l-0.5-0.4zm-68.9 0.5v-1l-1 1zm0 20.5h-1l0.9 0.9z"/>
			</g>
			<path id="&lt;Path&gt;" class="s0" d="m468 626.8h-70.3v-22.4h70.3z"/>
			<path id="&lt;Path&gt;" class="s0" d="m834.7 769.7h-70.3v-22.4h70.3z"/>
			<path id="&lt;Path&gt;" class="s0" d="m795.5 54.2h-70.4v-22.3h70.4z"/>
			<g id="&lt;Group&gt;">
				<path id="&lt;Compound Path&gt;" fill-rule="evenodd" class="s0" d="m834.7 82.5l-34.9 0.6-17.7 0.2-17.7 0.1h-0.9v-0.9l-0.1-22.4v-1h1l35.1 0.1 17.6 0.2 17.6 0.2h0.5v0.5zm0 0l-0.5-21.9-17.1 0.2-17.6 0.2-34.2 0.1v20.5l16.5 0.1 17.5 0.2zm-0.5-21.9h0.5l-0.5-0.5zm-68.9 0.5v-1l-1 1zm0 20.5h-1l0.9 0.9z"/>
			</g>
			<g id="&lt;Group&gt;">
				<path id="&lt;Compound Path&gt;" fill-rule="evenodd" class="s0" d="m136.9 54.2l-35 0.6-17.6 0.3-17.8 0.1h-0.9v-1l-0.1-22.3v-1h1l35.2 0.1 17.6 0.2 17.6 0.2h0.4v0.5zm0 0l-0.4-21.9-17.1 0.2-17.6 0.2-34.2 0.1-0.1 20.5h16.5l17.5 0.3zm-0.4-21.9h0.4l-0.4-0.5zm-68.9 0.5v-1l-1 1zm-0.1 20.5h-0.9l0.9 0.9z"/>
			</g>
		</g>
		<g id="&lt;Group&gt;">
			<g id="&lt;Group&gt;">
				<g id="&lt;Group&gt;">
					<g id="&lt;Group&gt;">
						<path id="&lt;Compound Path&gt;" fill-rule="evenodd" class="s0" d="m274.9 30.7v355.3h-230.9v-355.3zm-8.6 8.5h-213.9v338.3h213.9z"/>
						<path id="&lt;Path&gt;" class="s1" d="m266.4 39.2v338.3h-213.9v-338.3z"/>
						<path id="&lt;Path&gt;" class="s0" d="m52.5 212.6h213.9v-8.5h-213.9z"/>
					</g>
					<path id="&lt;Path&gt;" class="s2" d="m28.3 410.4h262.3v-24.4h-262.3z"/>
					<g id="&lt;Group&gt;">
						<path id="&lt;Compound Path&gt;" fill-rule="evenodd" class="s2" d="m52.5 39.2h213.9v218.8h-213.9zm206 7.9h-198.1v203.1h198.1z"/>
						<path id="&lt;Path&gt;" class="s2" d="m193.9 250.1h4.2v-210.9h-4.2z"/>
						<path id="&lt;Path&gt;" class="s2" d="m120.7 250.1h4.3v-210.9h-4.3z"/>
					</g>
				</g>
			</g>
			<g id="&lt;Group&gt;">
				<g id="&lt;Group&gt;">
					<g id="&lt;Group&gt;">
						<path id="&lt;Compound Path&gt;" fill-rule="evenodd" class="s0" d="m658.7 30.7v355.3h-230.9v-355.3zm-8.5 8.5h-213.9v338.3h213.9z"/>
						<path id="&lt;Path&gt;" class="s1" d="m650.2 39.2v338.3h-213.9v-338.3z"/>
						<path id="&lt;Path&gt;" class="s0" d="m436.3 212.6h213.9v-8.5h-213.9z"/>
					</g>
					<path id="&lt;Path&gt;" class="s2" d="m412.1 410.4h262.3v-24.4h-262.3z"/>
					<g id="&lt;Group&gt;">
						<path id="&lt;Compound Path&gt;" fill-rule="evenodd" class="s2" d="m436.3 39.2h213.9v218.8h-213.9zm206 7.9h-198.1v203.1h198.1z"/>
						<path id="&lt;Path&gt;" class="s2" d="m577.7 250.1h4.2v-210.9h-4.2z"/>
						<path id="&lt;Path&gt;" class="s2" d="m504.6 250.1h4.2v-210.9h-4.2z"/>
					</g>
				</g>
			</g>
		</g>
		<g id="&lt;Group&gt;">
			<path id="&lt;Path&gt;" class="s2" d="m173.6 696h-72.2l-41.3-206 66.1-30.4z"/>
			<path id="&lt;Path&gt;" class="s0" d="m380.3 696h-206.7l-47.4-236.4h206.6z"/>
			<path id="&lt;Path&gt;" class="s2" d="m136.5 812.6h-110.6v-227.1h110.6z"/>
			<path id="&lt;Path&gt;" class="s2" d="m433.4 812.6h-30.3l-45-227.1h75.3z"/>
			<path id="&lt;Path&gt;" class="s0" d="m197.3 812.6h-60.8v-227.1h60.8z"/>
			<path id="&lt;Path&gt;" class="s0" d="m494.2 812.6h-60.8v-227.1h60.8z"/>
			<path id="&lt;Path&gt;" class="s0" d="m433.4 696h-236.1v116.6h236.1z"/>
			<path id="&lt;Path&gt;" class="s0" d="m433.4 645.7h-236.1v50.8h236.1z"/>
			<path id="&lt;Path&gt;" class="s2" d="m151.4 585.5l23-0.4 22.9-0.3h0.7v0.7l0.3 26.6 0.1 26.5c0.1 17.8 0.1 35.5 0 53.2 0 17.7-0.1 35.4-0.3 53.1q-0.2 26.6-0.8 53.2-0.5-26.6-0.7-53.2c-0.2-17.7-0.3-35.4-0.3-53.1-0.1-17.7-0.1-35.4 0-53.2l0.1-26.5 0.2-26.6 0.7 0.7-22.9-0.3z"/>
			<path id="&lt;Path&gt;" class="s2" d="m433.4 585.5c0.4 17.8 0.7 35.6 0.9 53.3l0.2 53.4-0.2 53.3-0.4 26.7-0.5 26.7-0.6-26.7-0.3-26.7-0.3-53.3 0.3-53.4c0.2-17.7 0.4-35.5 0.9-53.3z"/>
			<path id="&lt;Path&gt;" class="s2" d="m433.4 696c-19.7 0.5-39.4 0.7-59 0.9l-59 0.3-59.1-0.3-29.5-0.3-29.5-0.6 29.5-0.5 29.5-0.3 59.1-0.3 59 0.3c19.6 0.1 39.3 0.4 59 0.8z"/>
			<path id="&lt;Path&gt;" class="s2" d="m433.4 645.7c-19.7 0.4-39.4 0.7-59 0.8l-59 0.3-59.1-0.2-29.5-0.4-29.5-0.5 29.5-0.6 29.5-0.3 59.1-0.3 59 0.3c19.6 0.2 39.3 0.4 59 0.9z"/>
			<g id="&lt;Group&gt;">
				<path id="&lt;Path&gt;" class="s3" d="m67.9 812.6l-1.5 18.3-3.5 42.5h-16l-3.5-42.5-1.5-18.3z"/>
				<path id="&lt;Path&gt;" class="s4" d="m41.9 812.6h26l-1.5 18.3h-23z"/>
			</g>
			<g id="&lt;Group&gt;">
				<path id="&lt;Path&gt;" class="s3" d="m179.9 812.6l-1.5 18.3-3.4 42.5h-16.1l-3.5-42.5-1.5-18.3z"/>
				<path id="&lt;Path&gt;" class="s4" d="m153.9 812.6h26l-1.5 18.3h-23z"/>
			</g>
			<g id="&lt;Group&gt;">
				<path id="&lt;Path&gt;" class="s3" d="m365.7 812.6l-1.5 18.3-3.5 42.5h-16l-3.5-42.5-1.5-18.3z"/>
				<path id="&lt;Path&gt;" class="s4" d="m339.7 812.6h26l-1.5 18.3h-23z"/>
			</g>
			<g id="&lt;Group&gt;">
				<path id="&lt;Path&gt;" class="s3" d="m477.8 812.6l-1.5 18.3-3.5 42.5h-16.1l-3.5-42.5-1.5-18.3z"/>
				<path id="&lt;Path&gt;" class="s4" d="m477.8 812.6l-1.5 18.3h-23.1l-1.5-18.3z"/>
			</g>
		</g>
	</g>
	<g id="Plant">
		<g id="&lt;Group&gt;">
			<g id="&lt;Group&gt;">
				<g id="&lt;Group&gt;">
					<path id="&lt;Path&gt;" class="s5" d="m149.3 739.3c0 0 36.6-8.3 56.6-26.7 20-18.5 31.2-51.5 31.2-51.5 0 0-21.5 3.9-41 10.7-3.2 3.5-9.5 10.7-12.4 17.6 0 0-0.6-7.3-0.1-12.6-5.2 2.4-9.7 5.1-13 7.9-16.6 14.6-21.3 54.6-21.3 54.6z"/>
					<g id="&lt;Group&gt;">
						<path id="&lt;Path&gt;" class="s6" d="m214.3 677.1c5-3.4 10.1-6.7 15-10.2 0.3-0.2 0-0.7-0.3-0.5-9.4 5.6-18.7 11.6-27.7 17.9q-4.7 3.3-9.2 6.8 0.3-0.5 0.6-1.1c1.1-1.8 2.3-3.6 3.4-5.4 2.4-3.6 4.9-7.2 7.8-10.3 0.1-0.2-0.1-0.3-0.2-0.2-2.8 3.3-5.7 6.5-8.3 10q-1.8 2.5-3.4 5.1-0.9 1.4-1.7 2.8-0.3 0.4-0.5 0.9c-4.8 3.7-9.4 7.6-13.8 11.7q-4 3.8-7.8 7.8c1.4-4.4 2.6-8.9 4.3-13.2 0-0.2-0.2-0.2-0.3-0.1-1.6 4.6-3.3 9.2-4.5 13.9q-4.2 4.5-8 9.4 0-0.3 0.1-0.6 0.6-2.6 1.3-5.2c0.9-3.3 1.9-6.5 3-9.8 2.3-6.6 5.2-13.1 9.8-18.5 0.1-0.1-0.1-0.3-0.2-0.2-7.1 8.5-11.3 18.6-14 29.2q-0.6 2.4-1.1 4.7c-0.2 0.8-0.4 1.7-0.5 2.5q-1.7 2.3-3.3 4.6c-6.3 9.4-11.3 19.7-15.4 30.3-4.7 11.9-8.4 24.2-11.7 36.5-0.1 0.3 0.3 0.3 0.3 0.1 7.2-21.4 14.5-43.1 26.7-62.2q3.9-6 8.4-11.7c6-0.3 12-1.6 17.7-3.5 6.3-2.1 12.3-5 17.9-8.6 3.2-2.1 6.1-4.5 9.1-6.9 0.1-0.1 0-0.3-0.2-0.2-4.9 4.2-10.9 7.5-16.7 10.2-5.9 2.6-12.1 4.8-18.5 6.1-2.7 0.6-5.4 1.1-8.1 1.4q5-6.2 10.7-11.9c1.3-1.2 2.6-2.4 3.8-3.6 4.2-3.1 8.9-5.5 13.5-7.7 6-2.9 11.9-6 17.8-9 3.4-1.7 6.7-3.5 10.1-5.1 0.1-0.1 0-0.3-0.2-0.2-6 2.9-12.1 5.6-18.1 8.4-5.7 2.6-11.5 5.2-17 8.3q-0.3 0.2-0.7 0.4c5-4.3 10.1-8.4 15.3-12.4q7.3-5.5 14.8-10.7z"/>
						<path id="&lt;Path&gt;" class="s6" d="m212.2 696c-2.9 1.3-6 2.4-8.9 3.8-3 1.4-5.9 3.1-8.8 4.8-0.1 0 0 0.2 0.1 0.2 3-1.4 5.9-2.7 8.8-4.2 2.9-1.5 5.9-3.1 8.9-4.4 0.1-0.1 0.1-0.3-0.1-0.2z"/>
					</g>
				</g>
				<g id="&lt;Group&gt;">
					<path id="&lt;Path&gt;" class="s5" d="m30.6 556.3c0 0 10.3 11.7 10.9 30.3 0.1 3.3-0.4 7.9-0.8 13.3 13.7 7.2 23.9 20.3 23.9 20.3-7.7-4.6-18.4-6.5-24.1-5.7 0.2 3.5 0.6 7.2 1.4 10.9 2.5-0.2 7.4 0.2 15.5 3.1 0 0-7.9-0.2-14 2.7 6.5 20.8 25.9 42.1 79.4 51.1 0 0 10.3-36.3-9.5-75.3-16-31.5-82.7-50.7-82.7-50.7z"/>
					<g id="&lt;Group&gt;">
						<path id="&lt;Path&gt;" class="s6" d="m141.3 769.8q-1.4-13.3-3.5-26.4c-2.7-17.7-6.3-35.2-10.8-52.4-2.1-8.1-4.6-16.1-7.7-23.8 0.2-1.5 0.2-2.9 0.2-4.3q0.1-2.6 0-5.2 0-5.1-0.5-10.2c-0.5-6.8-1.6-13.5-3.2-20.1-1-3.8-2.2-7.5-3.3-11.3 0-0.2-0.3-0.1-0.2 0.1 1.9 6.5 3 13.3 3.9 20 1 6.6 1.6 13.3 1.8 20.1q0.1 2.7 0.1 5.5 0 1.1 0 2.3c-2.7-6.3-5.6-12.6-9-18.6-5.4-9.6-11.6-18.7-18.3-27.4 0-1-0.3-2-0.5-3q-0.4-1.8-0.8-3.6-0.8-3.6-1.8-7.3c-1.3-4.8-3.1-9.5-4.6-14.3 0-0.1-0.3-0.1-0.2 0.1 1.4 4.7 2.3 9.6 3.4 14.5q0.8 3.5 1.6 7.1 0.4 1.8 0.8 3.6 0 0.1 0 0.3-3.2-4.1-6.6-8.1c-10.2-12-21.4-23-32.7-34-1.4-1.3-2.8-2.6-4.2-4-0.1-0.1-0.3 0.1-0.2 0.2 10.8 11.2 21.4 22.6 31.4 34.5q3.6 4.2 7.1 8.6-1.8-1.2-3.7-2.4c-3.1-2.1-6.2-4-9.5-5.9-3.2-1.8-6.5-3.6-9.8-5.2-3.4-1.7-7.1-3.1-10.4-5-0.2-0.1-0.3 0.1-0.1 0.2 3.4 1.4 6.6 3.5 9.7 5.4 3.3 1.9 6.5 3.9 9.7 5.9 3.2 2 6.3 4 9.4 6 2.6 1.7 5.2 3.5 7.9 5.1 6.2 8 12 16.3 17.1 24.9q4.9 8.2 8.9 16.8-1-0.4-1.9-0.8-2.5-1.1-4.9-2.2-4.7-2.1-9.5-4.1c-6-2.6-12.1-5-18-7.9-3.3-1.6-6.5-3.3-9.6-5.3-0.1-0.1-0.2 0.1-0.1 0.2 11 7.6 23.3 12.9 35.4 18.3l5.3 2.3c1.4 0.6 2.9 1.3 4.4 1.9q5.3 12 9 24.8c4.9 17 8.6 34.3 11.6 51.7 3.1 17.5 5.2 35.1 6.8 52.7q0.3 3.3 0.6 6.6c0.1 0.9 1.4 0.9 1.4 0-0.1-9-1-18-1.9-26.9z"/>
						<path id="&lt;Path&gt;" class="s6" d="m108.7 622.2c-0.9-5.5-2.4-10.8-3.9-16.1 0-0.2-0.2-0.1-0.2 0.1 1.4 5.2 2.3 10.5 3.3 15.8q1.5 8.1 2.7 16.3c0 0.1 0.1 0.1 0.1 0q-0.5-8.1-2-16.1z"/>
						<path id="&lt;Path&gt;" class="s6" d="m85.7 636.9c-3.6-2.6-7.7-4.5-11.6-6.5q-3-1.5-5.9-3c-2.1-0.9-4.2-1.8-6.2-2.8-0.1-0.1-0.3 0.2-0.1 0.2 1.9 1 3.8 2.2 5.7 3.2q3 1.7 6 3.3c3.9 2.1 7.7 4.4 11.8 6.1 0.4 0.2 0.6-0.3 0.3-0.5z"/>
					</g>
				</g>
				<g id="&lt;Group&gt;">
					<path id="&lt;Path&gt;" class="s7" d="m150 676c0 0 33.8-8.1 49.3-30.8 14.9-21.6 19.7-58.6 20-61.8-0.6 3-7.6 35.3-30.6 50.3-17.6 11.5-34.6 21-38.7 42.3z"/>
					<path id="&lt;Path&gt;" class="s6" d="m181.2 617.6c-6 5.7-10.4 12.5-12.5 20.5 0 0.1 0.1 0.1 0.1 0.1 2.6-7.6 6.8-15 12.6-20.4 0.1-0.1-0.1-0.3-0.2-0.2z"/>
					<g id="&lt;Group&gt;">
						<path id="&lt;Path&gt;" class="s5" d="m150 677.2c0 0 33.8-8.1 49.3-30.8 14.9-21.7 19.7-58.6 20-61.9q0.1-0.2 0.1-0.2c0 0-16.2 23.1-33.3 29-17 5.8-41 26.2-36.1 63.9z"/>
						<path id="&lt;Path&gt;" class="s6" d="m213.4 595.9c-3.2 6.1-6.4 12.2-10.5 17.9-3.9 5.4-8.6 10.1-13.9 14.3-4.6 3.6-9.4 6.9-14.1 10.5q0.1-0.1 0.1-0.2 1.3-1.9 2.8-3.7c1.9-2.5 4-4.9 6.2-7.2 4.2-4.5 8.5-9 12.2-13.9 2.1-2.8 3.9-5.7 5.5-8.8 0-0.1-0.2-0.2-0.3 0-5.5 11.4-16.4 18.7-24.2 28.4q-1.7 2-3.2 4.2c-0.6 1.1-1.5 2.2-1.9 3.5-4.3 3.5-8.2 7.2-11.6 11.6 0.3-2.2 0.8-4.4 1.4-6.5 0.8-3.1 1.9-5.9 3.6-8.6 0.1-0.1-0.1-0.3-0.2-0.1-1.6 2.6-3 5.5-4 8.5-0.7 2.4-1.1 4.8-1.2 7.3q0 0 0 0c-1.7 2.3-3.2 4.6-4.6 7.1q0.2-1.1 0.4-2.2c0.7-3.3 1.5-6.7 2.3-10 1.8-6.8 4.2-13.3 8.2-19.1 0.1-0.1-0.2-0.2-0.2-0.1-4 5.7-6.9 12.1-9.1 18.6-1 3.3-1.9 6.7-2.7 10.1q-0.5 2.5-1 5c-0.1 0.9-0.3 1.8-0.5 2.7-3.4 7.3-5.9 15.1-7.8 22.9-3.4 14-5.6 28.4-7.2 42.8-1.7 15-2.6 30.2-2.3 45.4 0 1.9 0.1 3.8 0.2 5.7 0.1 0.5 0.8 0.5 0.8 0 0.3-7.5 0.5-15 1-22.5q0.7-11.3 1.9-22.5c1.6-14.6 3.8-29.3 7-43.7 2.8-12.4 6.3-24.8 13.1-35.6 3.4-5.5 7.4-10.3 12.2-14.5 4.7-4.3 9.9-8 14.9-12 5-3.9 9.8-8.2 13.7-13.1 4.3-5.4 7.6-11.4 10.8-17.5q1.2-2.3 2.4-4.6c0.1-0.1-0.1-0.3-0.2-0.1z"/>
						<path id="&lt;Path&gt;" class="s6" d="m207.5 600.8c-2.1 4.6-4.7 9-7.5 13.2-0.1 0.1 0.1 0.2 0.2 0.1 2.9-4.1 5.4-8.6 7.6-13.2 0-0.1-0.2-0.2-0.3-0.1z"/>
					</g>
				</g>
				<g id="&lt;Group&gt;">
					<path id="&lt;Path&gt;" class="s5" d="m25.9 662.2c0 0-0.6 48.1 28.2 61.9 28.7 13.9 44.1 2.3 63.7 7q-0.1 0-0.1 0c-0.7-1.2-14.7-21.2-36.8-26.7-22.8-5.7-48.1-22.2-55-42.2z"/>
					<path id="&lt;Path&gt;" class="s8" d="m25.9 662.2c0 0-0.6 48.1 28.2 61.9 28.7 13.9 44.1 2.3 63.7 7q-0.1 0-0.1 0c-0.8-0.4-15-7.6-32.7-9.7-18.1-2.1-52.7-14-59.1-59.2z"/>
					<g id="&lt;Group&gt;">
						<path id="&lt;Path&gt;" class="s6" d="m119.6 730.8c-3.4-3.1-7.2-5.7-11.4-7.7-0.6-0.3-1.2-0.6-1.9-0.8q-0.4-0.6-0.9-1.1-1.3-1.4-2.7-2.6c-1.8-1.6-3.8-3-5.8-4.2-4.8-2.8-10-4.7-14.9-7.3-0.1-0.1-0.2 0.1-0.1 0.2 2.4 1.2 4.8 2.6 7.1 4 2.3 1.3 4.6 2.6 6.8 4q3 1.9 5.7 4.3 0.8 0.6 1.5 1.4c-3.2-1.1-6.4-1.9-9.7-2.6-5.3-1.1-10.6-1.8-15.9-2.9q-3.8-0.9-7.6-2.1c-2.4-1.9-4.7-3.8-7-5.9-2.7-2.5-5.2-5.2-7.4-8.2-0.1-0.2-0.3 0-0.2 0.1 3.5 4.6 7.3 9.2 11.7 13q-1.8-0.7-3.6-1.5c-9.8-4.5-18.5-11.5-24.5-20.4-0.1-0.1-0.3 0-0.2 0.1 5.2 7.6 11.9 14.2 19.8 19 3.9 2.5 8.1 4.5 12.5 6 5.1 1.7 10.3 2.7 15.5 3.6 5.2 1 10.3 2 15.3 3.7 4.6 1.5 8.9 3.8 12.7 6.7 7.4 5.5 13.2 13.1 17.3 21.3 5.4 10.9 8 23.1 9.4 35.2 0.1 0.5 0.9 0.5 0.9 0-1.4-20.2-6.8-41.3-22.4-55.3z"/>
						<path id="&lt;Path&gt;" class="s6" d="m86.3 715.1c-1.4-2.3-3.6-4-5.9-5.3-2.7-1.6-5.2-3.3-7-5.8-0.1-0.2-0.3 0-0.2 0.1 1.7 2.2 3.8 4.1 6.2 5.6 2.5 1.5 5 3.1 6.7 5.5 0.1 0.2 0.3 0.1 0.2-0.1z"/>
					</g>
				</g>
			</g>
			<g id="&lt;Group&gt;">
				<g id="&lt;Group&gt;">
					<path id="&lt;Path&gt;" class="s9" d="m101.5 766.3l1.4 26.4 4 80.7h60.2l4-80.7 1.4-26.4z"/>
					<path id="&lt;Path&gt;" class="s6" d="m101.5 766.3l1.4 26.4h68.2l1.4-26.4z"/>
				</g>
				<path id="&lt;Path&gt;" class="s9" d="m97.3 780.5h79.4v-25.3h-79.4z"/>
			</g>
		</g>
	</g>
	<g id="Floor">
		<g id="&lt;Group&gt;">
			<path id="&lt;Path&gt;" class="s6" d="m25.9 873.4l101.3-0.4 101.2-0.2 202.6-0.4 202.6 0.4 101.2 0.2 101.3 0.4-101.3 0.5-101.2 0.2-202.6 0.3-202.6-0.3-101.2-0.2z"/>
		</g>
	</g>
	<g id="Screen">
		<g id="&lt;Group&gt;">
			<g id="&lt;Group&gt;">
				<g id="&lt;Group&gt;">
					<path id="&lt;Path&gt;" class="s1" d="m776.7 554.7h-691.4v-476.2h691.4z"/>
					<path id="&lt;Compound Path&gt;" fill-rule="evenodd" class="s6" d="m776.7 554.7c-0.1 0.2-691.6 0.2-691.7 0.3-0.3 0 0-476.4-0.2-476.5 0 0 0-0.5 0-0.5h0.5c0.1-0.1 691.5 0.4 691.6 0.3 0.2 0.1-0.2 332.1-0.2 441.8-0.1-109.5-0.4-440.5 0-441.4-1.7 0-670.1 0.3-690.9 0.3-0.1 17.2 0.2 473.8-0.5 475.4 2.6 0 691.4 0.3 691.4 0.3 0 0.1 0-12.9 0-34.6 0 21.6 0 34.6 0 34.6zm0-476q0 0 0 0 0 0 0 0zm-690.9 0.3q0-0.5 0-0.5l-0.5 0.5q0 0 0.5 0zm0-0.5q0 0 0 0zm-0.5 475.9q0 0 0 0 0 0 0 0z"/>
				</g>
				<g id="&lt;Group&gt;">
					<path id="&lt;Path&gt;" class="s6" d="m776.7 96.8h-691.4v-18.3h691.4z"/>
					<g id="&lt;Group&gt;">
						<path id="&lt;Path&gt;" class="s5" d="m103 87.7c0 2-1.7 3.7-3.7 3.7-2.1 0-3.7-1.7-3.7-3.7 0-2.1 1.6-3.7 3.7-3.7 2 0 3.7 1.6 3.7 3.7z"/>
						<path id="&lt;Path&gt;" class="s1" d="m118 87.7c0 2-1.6 3.7-3.7 3.7-2 0-3.7-1.7-3.7-3.7 0-2.1 1.7-3.7 3.7-3.7 2.1 0 3.7 1.6 3.7 3.7z"/>
						<path id="&lt;Path&gt;" class="s9" d="m133.1 87.7c0 2-1.7 3.7-3.7 3.7-2 0-3.7-1.7-3.7-3.7 0-2.1 1.7-3.7 3.7-3.7 2 0 3.7 1.6 3.7 3.7z"/>
					</g>
				</g>
			</g>
			<g id="&lt;Group&gt;">
				<g id="&lt;Group&gt;">
					<path id="&lt;Path&gt;" class="s0" d="m171.8 140.4h-14.9v-2.4h14.9z"/>
					<path id="&lt;Path&gt;" class="s0" d="m171.8 151.1h-14.9v-2.4h14.9z"/>
					<path id="&lt;Path&gt;" class="s0" d="m171.8 145.8h-14.9v-2.4h14.9z"/>
				</g>
				<path id="&lt;Path&gt;" class="s0" d="m288.5 147.2h-79.2v-5.3h79.2z"/>
				<path id="&lt;Path&gt;" class="s5" d="m397.2 147.2h-79.2v-5.3h79.2z"/>
				<path id="&lt;Path&gt;" class="s0" d="m505.9 147.2h-79.2v-5.3h79.2z"/>
				<g id="&lt;Group&gt;">
					<g id="&lt;Group&gt;">
						<path id="&lt;Path&gt;" class="s1" d="m704.9 153.8h-165.5v-18.5h165.5z"/>
						<g id="&lt;Group&gt;">
							<g id="&lt;Group&gt;">
								<path id="&lt;Compound Path&gt;" fill-rule="evenodd" class="s3" d="m705.1 154c-0.1-0.1-10.5-0.1-26 0 15.7 0.1 26.2 0.1 26 0q0 0 0-0.4 0 0.4 0 0.4zm-166.3 0c0 0-0.1-18.9-0.1-18.9v-0.5c27.9 0 98 0.2 124.9 0.2 0.1 0 41.6 0.2 41.6 0.2 0 0.1-0.1 16-0.1 18.6 0-2.5-0.1-18 0-18.4-20.7 0.1-62.3 0.2-82.9 0.2 0 0-75.6 0.2-82.5 0.2v18.3c2.1-0.9 93.3-0.2 139.4 0.1-46.9 0.2-140.7 1-140.3 0zm166.3-18.8q0 0 0 0 0 0 0 0zm-165.4 0.4v-0.5l-0.5 0.5q0 0 0.5 0zm0 18.3q-0.1 0.1 0 0.1z"/>
							</g>
						</g>
					</g>
					<g id="&lt;Group&gt;">
						<g id="&lt;Group&gt;">
							<path id="&lt;Path&gt;" class="s2" d="m701.5 149.7l-1.7 1.3-3.1-4.2-1.2-1.5q0.3-0.1 0.7-0.4 0.6-0.4 0.8-1.1l1.3 1.6z"/>
							<path id="&lt;Compound Path&gt;" fill-rule="evenodd" class="s2" d="m698.3 145.4q-0.4 0.6-1 1-0.3 0.3-0.6 0.4c-2 1.1-4.5 0.6-5.9-1.2-1.6-2.1-1.2-5 0.8-6.6 2.1-1.6 5-1.2 6.6 0.9 1.2 1.6 1.2 3.9 0.1 5.5zm-1.3-1.6c0.4-0.9 0.3-2-0.3-2.8-1-1.2-2.7-1.4-3.9-0.5-1.3 0.9-1.5 2.7-0.6 3.9 0.8 1 2.2 1.4 3.3 0.9q0.3-0.1 0.7-0.4 0.6-0.4 0.8-1.1z"/>
						</g>
					</g>
					<path id="&lt;Path&gt;" class="s3" d="m544.3 150.2h-1v-11.3h1z"/>
				</g>
			</g>
			<g id="&lt;Group&gt;">
				<path id="&lt;Path&gt;" class="s2" d="m776.7 554.7h-13.4v-457.9h13.4z"/>
				<path id="&lt;Path&gt;" class="s4" d="m770 256.4c-1.9 0-3.4-1.6-3.4-3.5v-149.4c0-1.9 1.5-3.5 3.4-3.5 1.9 0 3.5 1.6 3.5 3.5v149.4c0 1.9-1.6 3.5-3.5 3.5z"/>
			</g>
			<g id="&lt;Group&gt;">
				<path id="&lt;Path&gt;" class="s5" d="m705.1 227.4h-134.2v-42.5h134.2z"/>
				<g id="&lt;Group&gt;">
					<path id="&lt;Compound Path&gt;" class="s1" d="m588.9 207.9h-2.9c-0.6 0-1.1-0.4-1.1-1.1 0-0.6 0.5-1.1 1.1-1.1h2.9v-2.8c0-0.7 0.5-1.2 1.2-1.2 0.6 0 1.1 0.5 1.1 1.2v2.8h2.9c0.6 0 1.1 0.5 1.1 1.1 0 0.7-0.5 1.1-1.1 1.1h-2.9v2.9c0 0.6-0.5 1.1-1.1 1.1-0.7 0-1.2-0.5-1.2-1.1z"/>
					<path id="&lt;Compound Path&gt;" fill-rule="evenodd" class="s1" d="m611.7 209.9h-5l-1 2.7c-0.1 0.4-0.6 0.7-1 0.7q-0.2 0-0.4-0.1c-0.6-0.2-0.9-0.8-0.7-1.4l4.5-12c0.2-0.5 0.7-0.7 1.1-0.7 0.5 0 0.9 0.2 1.1 0.7l4.5 12c0.2 0.6-0.1 1.2-0.7 1.4q-0.2 0.1-0.4 0.1c-0.4 0-0.9-0.3-1-0.7zm-0.9-2.3l-1.6-4.3-1.6 4.3z"/>
					<path id="&lt;Compound Path&gt;" fill-rule="evenodd" class="s1" d="m626 212.2c0 0.6-0.5 1.1-1.1 1.1-0.5 0-0.9-0.4-1.1-0.9-0.7 0.5-1.7 0.9-2.7 0.9-2.8 0-5-2.3-5-5.1 0-2.8 2.2-5.1 5-5.1 1 0 2 0.3 2.7 0.9v-3.8c0-0.6 0.5-1.1 1.1-1.1 0.6 0 1.1 0.5 1.1 1.1 0 0 0 8 0 8zm-4.9-6.8c-0.7 0-1.4 0.3-1.9 0.8-0.5 0.5-0.8 1.2-0.8 2.1 0 0.7 0.3 1.5 0.8 2 0.5 0.5 1.2 0.8 1.9 0.8 0.7 0 1.4-0.3 1.9-0.8 0.5-0.5 0.8-1.3 0.8-2 0-0.9-0.3-1.6-0.8-2.1-0.5-0.5-1.2-0.8-1.9-0.8z"/>
					<path id="&lt;Compound Path&gt;" fill-rule="evenodd" class="s1" d="m639.4 212.2c0 0.6-0.5 1.1-1.1 1.1-0.5 0-0.9-0.4-1-0.9-0.8 0.5-1.8 0.9-2.8 0.9-2.7 0-4.9-2.3-4.9-5.1 0-2.8 2.2-5.1 4.9-5.1 1 0 2 0.3 2.7 0.9v-3.8c0-0.6 0.5-1.1 1.1-1.1 0.6 0 1.1 0.5 1.1 1.1 0 0 0 8 0 8zm-4.9-6.8c-0.7 0-1.4 0.3-1.9 0.8-0.5 0.5-0.8 1.2-0.8 2.1 0 0.7 0.3 1.5 0.8 2 0.5 0.5 1.2 0.8 1.9 0.8 0.7 0 1.4-0.3 1.9-0.8 0.5-0.5 0.8-1.3 0.8-2 0-0.9-0.3-1.6-0.8-2.1-0.5-0.5-1.2-0.8-1.9-0.8z"/>
					<path id="&lt;Compound Path&gt;" class="s1" d="m658.6 201.3h-3.2v10.9c0 0.6-0.5 1.1-1.1 1.1-0.6 0-1.1-0.5-1.1-1.1v-10.9h-3.2c-0.7 0-1.1-0.5-1.1-1.1 0-0.7 0.4-1.1 1.1-1.1h8.6c0.7 0 1.2 0.4 1.2 1.1 0 0.6-0.5 1.1-1.2 1.1z"/>
					<path id="&lt;Compound Path&gt;" fill-rule="evenodd" class="s1" d="m668.7 212.2c0 0.6-0.4 1.1-1 1.1-0.6 0-1-0.4-1.1-0.9-0.8 0.6-1.7 0.9-2.7 0.9-1.4 0-2.6-0.6-3.4-1.5-0.9-0.9-1.4-2.2-1.4-3.6 0-1.4 0.5-2.6 1.4-3.6 0.8-0.9 2-1.5 3.4-1.5 1 0 1.9 0.4 2.7 0.9 0.1-0.5 0.5-0.9 1.1-0.9 0.6 0 1 0.5 1 1.1zm-2.1-4c0-0.8-0.3-1.5-0.8-2.1-0.5-0.5-1.2-0.8-1.9-0.8-0.7 0-1.4 0.3-1.9 0.8-0.5 0.6-0.8 1.3-0.8 2.1 0 0.9 0.3 1.6 0.8 2.1 0.5 0.5 1.2 0.8 1.9 0.8 0.7 0 1.4-0.3 1.9-0.8 0.5-0.5 0.8-1.2 0.8-2.1z"/>
					<path id="&lt;Compound Path&gt;" class="s1" d="m672.2 210.4c0.4-0.5 1.1-0.6 1.6-0.2 0.5 0.5 1.4 0.9 2.2 0.9 0.5 0 1.1-0.2 1.4-0.4 0.3-0.2 0.3-0.4 0.3-0.6 0-0.1 0-0.1 0-0.2q0-0.1-0.3-0.2c-0.3-0.2-0.9-0.5-1.6-0.6-0.7-0.1-1.3-0.3-1.8-0.5-0.5-0.3-1-0.7-1.4-1.2-0.2-0.4-0.3-0.8-0.3-1.3 0-0.9 0.5-1.7 1.2-2.2 0.7-0.5 1.5-0.8 2.5-0.8 1.4 0 2.4 0.7 3 1.1 0.5 0.4 0.6 1 0.3 1.5-0.3 0.5-1 0.7-1.5 0.3-0.6-0.4-1.2-0.7-1.8-0.7-0.6 0-1 0.1-1.3 0.3-0.2 0.2-0.3 0.4-0.3 0.5 0 0.1 0 0.1 0.1 0.2q0 0 0.2 0.2c0.2 0.2 0.8 0.3 1.5 0.5q1 0.2 1.9 0.6c0.5 0.2 1.1 0.6 1.4 1.2 0.3 0.4 0.4 0.8 0.4 1.3 0 1-0.5 1.8-1.3 2.4-0.7 0.5-1.6 0.8-2.6 0.8-1.6 0-2.8-0.8-3.6-1.4-0.5-0.4-0.5-1.1-0.2-1.5z"/>
					<path id="&lt;Compound Path&gt;" class="s1" d="m682.7 212.2v-12c0-0.6 0.5-1.1 1.1-1.1 0.7 0 1.2 0.5 1.2 1.1v7l4.1-4.2c0.5-0.4 1.2-0.4 1.6 0 0.5 0.5 0.5 1.2 0 1.6l-3 3.1 3.1 3.7c0.4 0.5 0.3 1.2-0.2 1.6-0.2 0.2-0.4 0.3-0.7 0.3-0.3 0-0.6-0.2-0.8-0.4l-3-3.6-1.1 1.1v1.8c0 0.6-0.5 1.1-1.2 1.1-0.6 0-1.1-0.5-1.1-1.1z"/>
				</g>
			</g>
			<g id="&lt;Group&gt;">
				<path id="&lt;Compound Path&gt;" class="s6" d="m169.9 199.9h-3.9v13c0 0.8-0.6 1.4-1.3 1.4-0.8 0-1.4-0.6-1.4-1.4v-13h-3.8c-0.8 0-1.4-0.7-1.4-1.4 0-0.8 0.6-1.4 1.4-1.4h10.4c0.8 0 1.4 0.6 1.4 1.4 0 0.7-0.6 1.4-1.4 1.4z"/>
				<path id="&lt;Compound Path&gt;" fill-rule="evenodd" class="s6" d="m181.7 210.2h-5.9l-1.2 3.2c-0.2 0.6-0.8 0.9-1.3 0.9q-0.2 0-0.5-0.1c-0.7-0.3-1-1-0.8-1.7l5.5-14.5c0.2-0.5 0.7-0.9 1.3-0.8 0.5-0.1 1 0.3 1.3 0.8l5.4 14.5c0.2 0.7-0.1 1.4-0.8 1.7q-0.2 0.1-0.5 0.1c-0.5 0-1.1-0.3-1.3-0.9zm-1-2.7l-1.9-5.2-2 5.2z"/>
				<path id="&lt;Compound Path&gt;" class="s6" d="m187.9 210c0.4-0.5 1.2-0.6 1.8-0.1 1 0.8 2.9 1.9 4.7 1.8 1.2 0 2.3-0.3 3-0.9 0.8-0.5 1.1-1.1 1.1-1.7 0-0.4-0.1-0.6-0.2-0.8-0.2-0.3-0.4-0.5-0.8-0.8-0.7-0.4-1.9-0.8-3.3-1.1h-0.1c-1.1-0.2-2.2-0.5-3.2-1-0.9-0.4-1.7-1-2.2-1.9q-0.6-0.9-0.6-2c0-1.5 0.8-2.7 2-3.6 1.1-0.8 2.6-1.3 4.2-1.3 2.4 0 4.1 1.2 5.3 2 0.6 0.4 0.8 1.2 0.4 1.7-0.4 0.6-1.2 0.8-1.7 0.4-1.3-0.8-2.5-1.6-4-1.6-1.1 0-2.1 0.4-2.7 0.9-0.7 0.5-1 1-1 1.5 0 0.3 0.1 0.5 0.2 0.7q0.2 0.3 0.7 0.6c0.6 0.5 1.7 0.9 3 1.1h0.1c1.2 0.3 2.4 0.6 3.4 1.1 1 0.4 1.8 1.1 2.4 2 0.4 0.6 0.6 1.3 0.6 2.1 0 1.5-0.9 2.9-2.1 3.8-1.2 0.9-2.8 1.4-4.5 1.4-2.7-0.1-4.9-1.4-6.3-2.5-0.6-0.4-0.6-1.2-0.2-1.8z"/>
				<path id="&lt;Compound Path&gt;" class="s6" d="m204.8 212.9v-14.3c0-0.7 0.6-1.3 1.3-1.3 0.8 0 1.4 0.6 1.4 1.3v7l7.9-7.9c0.6-0.6 1.4-0.6 1.9 0 0.5 0.5 0.5 1.3 0 1.9l-5.4 5.4 5.5 7.1c0.5 0.5 0.4 1.4-0.2 1.9q-0.4 0.3-0.9 0.3c-0.3 0-0.7-0.2-1-0.5l-5.3-6.9-2.5 2.6v3.4c0 0.8-0.6 1.4-1.4 1.4-0.7 0-1.3-0.6-1.3-1.4z"/>
				<path id="&lt;Compound Path&gt;" class="s6" d="m221.5 210c0.5-0.5 1.3-0.6 1.8-0.1 1.1 0.8 3 1.9 4.7 1.8 1.2 0 2.3-0.3 3.1-0.9 0.7-0.5 1-1.1 1-1.7 0-0.4-0.1-0.6-0.2-0.8-0.1-0.3-0.4-0.5-0.7-0.8-0.7-0.4-1.9-0.8-3.4-1.1-1.2-0.2-2.3-0.5-3.2-1-0.9-0.4-1.7-1-2.3-1.9q-0.5-0.9-0.5-2c0-1.5 0.8-2.7 1.9-3.6 1.2-0.8 2.7-1.3 4.3-1.3 2.3 0 4 1.2 5.3 2 0.6 0.4 0.7 1.2 0.3 1.7-0.3 0.6-1.1 0.8-1.7 0.4-1.2-0.8-2.4-1.6-3.9-1.6-1.1 0-2.1 0.4-2.8 0.9-0.7 0.5-0.9 1-0.9 1.5 0 0.3 0 0.5 0.2 0.7q0.1 0.3 0.6 0.6c0.6 0.5 1.8 0.9 3.1 1.1 1.3 0.3 2.4 0.6 3.4 1.1 1 0.4 1.9 1.1 2.5 2 0.3 0.6 0.5 1.3 0.5 2.1 0 1.5-0.8 2.9-2.1 3.8-1.2 0.9-2.8 1.4-4.5 1.4-2.6-0.1-4.9-1.4-6.3-2.5-0.5-0.4-0.6-1.2-0.2-1.8z"/>
			</g>
			<g id="&lt;Group&gt;">
				<g id="&lt;Group&gt;">
					<path id="&lt;Compound Path&gt;" fill-rule="evenodd" class="s3" d="m156.4 301.2c0 0 0-50.7 0-50.7v-0.5c0.5 0.1 548.3 0.4 548.8 0.5 0 0-0.1 50.7-0.1 50.7v-50.7c-0.3 0.1-529.2 0.5-547.7 0.5l-0.1 50.2c2.4-0.9 308.8-0.2 462.3 0-154.4 0.3-463.5 1-463.2 0zm548.7-50.7q0 0 0 0zm-548.2 0.5q0 0 0.5 0v-0.5c0 0-0.5 0.5-0.5 0.5zm0.4 50.2q0 0 0 0zm-0.4-50.2q0 0 0 0 0 0 0 0zm548.2 50.3c-0.1-0.1-34.3-0.1-85.5 0 51.5 0 85.7 0.1 85.5 0z"/>
				</g>
				<g id="&lt;Group&gt;">
					<g id="&lt;Group&gt;">
						<path id="&lt;Path&gt;" class="s3" d="m184.6 269.8c62.7-1 133-1 195.7 0-62.7 0.9-133 0.9-195.7 0z"/>
					</g>
					<g id="&lt;Group&gt;">
						<path id="&lt;Path&gt;" class="s3" d="m184.6 282c40.8-1 85.6-1 126.4 0-40.8 1-85.6 1-126.4 0z"/>
					</g>
				</g>
				<g id="&lt;Group&gt;">
					<path id="&lt;Path&gt;" class="s0" d="m566.7 283.6h-112.4v-15.5h112.4z"/>
					<path id="&lt;Path&gt;" class="s5" d="m562.6 280.1h-105v-8.6h105z"/>
				</g>
				<g id="&lt;Group&gt;">
					<path id="&lt;Path&gt;" class="s5" d="m680.4 286.6h-57.9v-21.6h57.9z"/>
					<g id="&lt;Group&gt;">
						<path id="&lt;Compound Path&gt;" class="s1" d="m637.7 271c1 0 2 0.4 2.8 1 0.1 0.1 0.1 0.3 0 0.4-0.1 0.2-0.3 0.2-0.4 0.1-0.7-0.5-1.5-0.9-2.4-0.9-2.2 0-3.9 1.7-3.9 3.8 0 2.1 1.7 3.7 3.9 3.7 0.9 0 1.7-0.2 2.4-0.8 0.1-0.1 0.3-0.1 0.4 0.1 0.1 0.1 0.1 0.3 0 0.4-0.8 0.6-1.8 0.9-2.8 0.9-2.5 0-4.5-1.9-4.5-4.3 0-2.4 2-4.3 4.5-4.4z"/>
						<path id="&lt;Compound Path&gt;" class="s1" d="m647.3 276.1c0-1-0.8-1.8-1.9-1.8-1 0-1.9 0.8-1.9 1.8v3.4q0 0 0 0 0 0.1 0 0.1-0.1 0.1-0.2 0.1 0 0 0 0h-0.1q-0.1 0-0.2-0.1-0.1 0-0.1 0 0-0.1 0-0.1v-3.4-0.1-4.5c0-0.2 0.2-0.3 0.3-0.3 0.2 0 0.3 0.1 0.3 0.3v3.1c0.5-0.5 1.2-0.9 1.9-0.9 1.4 0 2.5 1 2.5 2.4v3.4c0 0.1-0.1 0.2-0.3 0.2-0.1 0-0.3-0.1-0.3-0.2z"/>
						<path id="&lt;Compound Path&gt;" fill-rule="evenodd" class="s1" d="m650 276.8c0-1.7 1.3-3.1 2.9-3.1 1.6 0 2.8 1.3 2.9 2.8v0.1c0 0.1-0.1 0.3-0.3 0.3h-4.9c0.1 1.3 1.1 2.3 2.3 2.3 0.8 0 1.6-0.5 2-1.1 0-0.2 0.2-0.2 0.4-0.1 0.1 0.1 0.1 0.2 0.1 0.4-0.6 0.8-1.5 1.3-2.5 1.3-1.6 0-2.9-1.3-2.9-2.9zm0.6-0.5h4.6c-0.2-1.2-1.2-2-2.3-2-1.1 0-2 0.8-2.3 2z"/>
						<path id="&lt;Compound Path&gt;" class="s1" d="m657.5 276.7c0-1.6 1.4-3 3.1-3 0.7 0 1.4 0.3 1.9 0.7 0.1 0.1 0.1 0.3 0 0.4-0.1 0.1-0.3 0.2-0.4 0.1-0.4-0.4-1-0.6-1.5-0.6-1.4 0-2.5 1.1-2.5 2.4 0 1.4 1.1 2.5 2.5 2.5 0.5 0 1.1-0.2 1.5-0.6 0.1-0.1 0.3 0 0.4 0.1 0.1 0.1 0.1 0.3 0 0.4-0.5 0.4-1.2 0.6-1.9 0.6-1.7 0-3.1-1.3-3.1-3z"/>
						<path id="&lt;Compound Path&gt;" class="s1" d="m664.9 271.5c0-0.2 0.1-0.3 0.3-0.3 0.2 0 0.3 0.1 0.3 0.3v5.7l3.6-3.5c0.1-0.1 0.3-0.1 0.4 0 0.1 0.1 0.1 0.3 0 0.4l-2.3 2.3 2.3 2.9c0.1 0.1 0.1 0.3 0 0.4q-0.1 0.1-0.2 0c-0.1 0-0.2 0-0.3-0.1l-2.3-2.7-1.2 1.2v1.4c0 0.1-0.1 0.2-0.3 0.2-0.2 0-0.3-0.1-0.3-0.2z"/>
					</g>
				</g>
			</g>
			<g id="&lt;Group&gt;">
				<g id="&lt;Group&gt;">
					<path id="&lt;Compound Path&gt;" fill-rule="evenodd" class="s3" d="m156.4 372c0 0 0-50.8 0-50.8v-0.5c0.5 0.1 548.3 0.4 548.8 0.5 0 0-0.1 50.8-0.1 50.8v-50.8c-0.3 0.2-529.2 0.5-547.7 0.5l-0.1 50.2c2.4-0.9 308.8-0.2 462.3 0.1-154.4 0.2-463.5 1-463.2 0zm548.7-50.8q0 0 0 0zm-548.2 0.5q0 0 0.5 0v-0.5c0 0-0.5 0.5-0.5 0.5zm0.4 50.2q0 0.1 0 0.1zm-0.4-50.2q0 0 0 0 0 0 0 0zm548.2 50.2c-0.1-0.1-34.3-0.1-85.5 0 51.5 0.1 85.7 0.1 85.5 0z"/>
				</g>
				<g id="&lt;Group&gt;">
					<g id="&lt;Group&gt;">
						<path id="&lt;Path&gt;" class="s3" d="m184.6 340.5c62.7-1 133-1 195.7 0-62.7 1-133 1-195.7 0z"/>
					</g>
					<g id="&lt;Group&gt;">
						<path id="&lt;Path&gt;" class="s3" d="m184.6 352.7c40.8-1 85.6-1 126.4 0-40.8 1-85.6 1-126.4 0z"/>
					</g>
				</g>
				<g id="&lt;Group&gt;">
					<path id="&lt;Path&gt;" class="s0" d="m566.7 354.4h-112.4v-15.6h112.4z"/>
					<path id="&lt;Path&gt;" class="s5" d="m530.7 350.8h-73.1v-8.6h73.1z"/>
				</g>
				<g id="&lt;Group&gt;">
					<path id="&lt;Path&gt;" class="s5" d="m680.4 357.3h-57.9v-21.6h57.9z"/>
					<g id="&lt;Group&gt;">
						<path id="&lt;Compound Path&gt;" class="s1" d="m637.7 341.8c1 0 2 0.3 2.8 0.9 0.1 0.1 0.1 0.3 0 0.4-0.1 0.2-0.3 0.2-0.4 0.1-0.7-0.5-1.5-0.8-2.4-0.8-2.2 0-3.9 1.7-3.9 3.7 0 2.1 1.7 3.8 3.9 3.8 0.9 0 1.7-0.3 2.4-0.9 0.1-0.1 0.3 0 0.4 0.1 0.1 0.1 0.1 0.3 0 0.4-0.8 0.6-1.8 1-2.8 1-2.5 0-4.5-2-4.5-4.4 0-2.4 2-4.3 4.5-4.3z"/>
						<path id="&lt;Compound Path&gt;" class="s1" d="m647.3 346.8c0-1-0.8-1.7-1.9-1.7-1 0-1.9 0.7-1.9 1.7v3.4q0 0.1 0 0.1 0 0 0 0-0.1 0.1-0.2 0.2 0 0 0 0h-0.1q-0.1 0-0.2-0.1-0.1-0.1-0.1-0.1 0-0.1 0-0.1v-3.4-0.1-4.5c0-0.2 0.2-0.3 0.3-0.3 0.2 0 0.3 0.1 0.3 0.3v3.1c0.5-0.5 1.2-0.8 1.9-0.8 1.4 0 2.5 0.9 2.5 2.3v3.4c0 0.1-0.1 0.3-0.3 0.3-0.1 0-0.3-0.2-0.3-0.3z"/>
						<path id="&lt;Compound Path&gt;" fill-rule="evenodd" class="s1" d="m650 347.5c0-1.7 1.3-3 2.9-3 1.6 0 2.8 1.2 2.9 2.8 0 0.2-0.1 0.3-0.3 0.3h-4.9c0.1 1.3 1.1 2.3 2.3 2.3 0.8 0 1.6-0.4 2-1.1 0-0.2 0.2-0.2 0.4-0.1 0.1 0.1 0.1 0.3 0.1 0.4-0.6 0.8-1.5 1.4-2.5 1.4-1.6 0-2.9-1.4-2.9-3zm0.6-0.5h4.6c-0.2-1.1-1.2-1.9-2.3-1.9-1.1 0-2 0.8-2.3 1.9z"/>
						<path id="&lt;Compound Path&gt;" class="s1" d="m657.5 347.5c0-1.7 1.4-3 3.1-3 0.7 0 1.4 0.2 1.9 0.6 0.1 0.1 0.1 0.3 0 0.4-0.1 0.1-0.3 0.2-0.4 0.1-0.4-0.4-1-0.6-1.5-0.6-1.4 0-2.5 1.1-2.5 2.5 0 1.3 1.1 2.4 2.5 2.4 0.5 0 1.1-0.2 1.5-0.5 0.1-0.1 0.3-0.1 0.4 0 0.1 0.1 0.1 0.3 0 0.4-0.5 0.4-1.2 0.7-1.9 0.7-1.7 0-3.1-1.3-3.1-3z"/>
						<path id="&lt;Compound Path&gt;" class="s1" d="m664.9 342.2c0-0.2 0.1-0.3 0.3-0.3 0.2 0 0.3 0.1 0.3 0.3v5.8l3.6-3.6c0.1-0.1 0.3-0.1 0.4 0 0.1 0.1 0.1 0.3 0 0.4l-2.3 2.4 2.3 2.8c0.1 0.1 0.1 0.3 0 0.4q-0.1 0.1-0.2 0.1c-0.1 0-0.2-0.1-0.3-0.1l-2.3-2.8-1.2 1.2v1.4c0 0.1-0.1 0.3-0.3 0.3-0.2 0-0.3-0.2-0.3-0.3z"/>
					</g>
				</g>
			</g>
			<g id="&lt;Group&gt;">
				<g id="&lt;Group&gt;">
					<path id="&lt;Compound Path&gt;" fill-rule="evenodd" class="s3" d="m156.4 442.7c0 0 0-50.7 0-50.7v-0.5c0.5 0 548.3 0.3 548.8 0.5 0 0-0.1 50.7-0.1 50.7v-50.7c-0.3 0.1-529.2 0.4-547.7 0.5l-0.1 50.2c2.4-0.9 308.8-0.2 462.3 0-154.4 0.2-463.5 1-463.2 0zm548.7-50.7q0 0 0 0zm-548.2 0.5q0 0 0 0 0 0 0 0zm0 0q0 0 0.5 0v-0.5c0 0-0.5 0.5-0.5 0.5zm0.4 50.2q0 0 0 0zm547.8 0c-0.1-0.1-34.3-0.1-85.5 0 51.5 0.1 85.7 0.1 85.5 0z"/>
				</g>
				<g id="&lt;Group&gt;">
					<g id="&lt;Group&gt;">
						<path id="&lt;Path&gt;" class="s3" d="m184.6 411.2c62.7-1 133-1 195.7 0-62.7 1-133 1-195.7 0z"/>
					</g>
					<g id="&lt;Group&gt;">
						<path id="&lt;Path&gt;" class="s3" d="m184.6 423.4c40.8-0.9 85.6-0.9 126.4 0-40.8 1-85.6 1-126.4 0z"/>
					</g>
				</g>
				<g id="&lt;Group&gt;">
					<path id="&lt;Path&gt;" class="s0" d="m566.7 425.1h-112.4v-15.5h112.4z"/>
					<path id="&lt;Path&gt;" class="s5" d="m471.6 421.6h-14v-8.7h14z"/>
				</g>
				<g id="&lt;Group&gt;">
					<path id="&lt;Path&gt;" class="s5" d="m680.4 428.1h-57.9v-21.7h57.9z"/>
					<g id="&lt;Group&gt;">
						<path id="&lt;Compound Path&gt;" class="s1" d="m637.7 412.5c1 0 2 0.4 2.8 0.9 0.1 0.2 0.1 0.4 0 0.5-0.1 0.1-0.3 0.1-0.4 0-0.7-0.5-1.5-0.8-2.4-0.8-2.2 0-3.9 1.7-3.9 3.8 0 2 1.7 3.7 3.9 3.7 0.9 0 1.7-0.3 2.4-0.8 0.1-0.1 0.3-0.1 0.4 0 0.1 0.2 0.1 0.4 0 0.5-0.8 0.5-1.8 0.9-2.8 0.9-2.5 0-4.5-1.9-4.5-4.3 0-2.5 2-4.4 4.5-4.4z"/>
						<path id="&lt;Compound Path&gt;" class="s1" d="m647.3 417.6c0-1.1-0.8-1.8-1.9-1.8-1 0-1.9 0.7-1.9 1.8v3.3q0 0.1 0 0.1 0 0 0 0-0.1 0.2-0.2 0.2 0 0 0 0h-0.1q-0.1 0-0.2-0.1-0.1 0-0.1-0.1 0 0 0-0.1v-3.3-0.1-4.6c0-0.1 0.2-0.3 0.3-0.3 0.2 0 0.3 0.2 0.3 0.3v3.2c0.5-0.6 1.2-0.9 1.9-0.9 1.4 0 2.5 1 2.5 2.4v3.3c0 0.2-0.1 0.3-0.3 0.3-0.1 0-0.3-0.1-0.3-0.3z"/>
						<path id="&lt;Compound Path&gt;" fill-rule="evenodd" class="s1" d="m650 418.2c0-1.7 1.3-3 2.9-3 1.6 0 2.8 1.2 2.9 2.8 0 0.2-0.1 0.3-0.3 0.3h-4.9c0.1 1.3 1.1 2.3 2.3 2.3 0.8 0 1.6-0.4 2-1.1 0-0.1 0.2-0.1 0.4-0.1 0.1 0.1 0.1 0.3 0.1 0.4-0.6 0.9-1.5 1.4-2.5 1.4-1.6 0-2.9-1.3-2.9-3zm0.6-0.5h4.6c-0.2-1.1-1.2-1.9-2.3-1.9-1.1 0-2 0.8-2.3 1.9z"/>
						<path id="&lt;Compound Path&gt;" class="s1" d="m657.5 418.2c0-1.7 1.4-3 3.1-3 0.7 0 1.4 0.2 1.9 0.7 0.1 0 0.1 0.2 0 0.4-0.1 0.1-0.3 0.1-0.4 0-0.4-0.3-1-0.5-1.5-0.5-1.4 0-2.5 1.1-2.5 2.4 0 1.3 1.1 2.4 2.5 2.4 0.5 0 1.1-0.2 1.5-0.5 0.1-0.1 0.3-0.1 0.4 0 0.1 0.2 0.1 0.4 0 0.5-0.5 0.4-1.2 0.6-1.9 0.6-1.7 0-3.1-1.3-3.1-3z"/>
						<path id="&lt;Compound Path&gt;" class="s1" d="m664.9 412.9c0-0.1 0.1-0.3 0.3-0.3 0.2 0 0.3 0.2 0.3 0.3v5.8l3.6-3.6c0.1-0.1 0.3-0.1 0.4 0 0.1 0.2 0.1 0.3 0 0.5l-2.3 2.3 2.3 2.8c0.1 0.1 0.1 0.3 0 0.4q-0.1 0.1-0.2 0.1c-0.1 0-0.2 0-0.3-0.1l-2.3-2.8-1.2 1.2v1.4c0 0.2-0.1 0.3-0.3 0.3-0.2 0-0.3-0.1-0.3-0.3z"/>
					</g>
				</g>
			</g>
			<g id="&lt;Group&gt;">
				<g id="&lt;Group&gt;">
					<path id="&lt;Compound Path&gt;" fill-rule="evenodd" class="s3" d="m156.4 513.4c0 0 0-50.7 0-50.7v-0.5c0.5 0 548.3 0.4 548.8 0.5 0 0-0.1 50.7-0.1 50.7v-50.7c-0.3 0.1-529.2 0.4-547.7 0.5l-0.1 50.2c2.4-0.9 308.8-0.2 462.3 0-154.4 0.3-463.5 1-463.2 0zm548.7-50.7q0 0 0 0zm-548.2 0.5q0 0 0.5 0v-0.5c0 0-0.5 0.5-0.5 0.5zm0.4 50.2q0 0 0 0zm-0.4-50.2q0 0 0 0 0 0 0 0zm548.2 50.2c-0.1-0.1-34.3 0-85.5 0 51.5 0.1 85.7 0.1 85.5 0z"/>
				</g>
				<g id="&lt;Group&gt;">
					<g id="&lt;Group&gt;">
						<path id="&lt;Path&gt;" class="s3" d="m184.6 481.9c62.7-0.9 133-0.9 195.7 0-62.7 1-133 1-195.7 0z"/>
					</g>
					<g id="&lt;Group&gt;">
						<path id="&lt;Path&gt;" class="s3" d="m184.6 494.2c40.8-1 85.6-1 126.4 0-40.8 1-85.6 1-126.4 0z"/>
					</g>
				</g>
				<g id="&lt;Group&gt;">
					<path id="&lt;Path&gt;" class="s0" d="m566.7 495.8h-112.4v-15.5h112.4z"/>
					<path id="&lt;Path&gt;" class="s5" d="m479 492.3h-21.4v-8.6h21.4z"/>
				</g>
				<g id="&lt;Group&gt;">
					<path id="&lt;Path&gt;" class="s5" d="m680.4 498.8h-57.9v-21.6h57.9z"/>
					<g id="&lt;Group&gt;">
						<path id="&lt;Compound Path&gt;" class="s1" d="m637.7 483.2c1 0 2 0.4 2.8 1 0.1 0.1 0.1 0.3 0 0.4-0.1 0.1-0.3 0.2-0.4 0.1-0.7-0.6-1.5-0.9-2.4-0.9-2.2 0-3.9 1.7-3.9 3.8 0 2 1.7 3.7 3.9 3.7 0.9 0 1.7-0.3 2.4-0.8 0.1-0.1 0.3-0.1 0.4 0.1 0.1 0.1 0.1 0.3 0 0.4-0.8 0.6-1.8 0.9-2.8 0.9-2.5 0-4.5-1.9-4.5-4.3 0-2.4 2-4.4 4.5-4.4z"/>
						<path id="&lt;Compound Path&gt;" class="s1" d="m647.3 488.3c0-1.1-0.8-1.8-1.9-1.8-1 0-1.9 0.7-1.9 1.8v3.3 0.1q0 0 0 0 0 0.1 0 0.1-0.1 0.1-0.2 0.1 0 0 0 0h-0.1q-0.1 0-0.2-0.1-0.1 0-0.1-0.1 0 0 0-0.1v-3.3-0.1-4.6c0-0.1 0.2-0.3 0.3-0.3 0.2 0 0.3 0.2 0.3 0.3v3.2c0.5-0.5 1.2-0.9 1.9-0.9 1.4 0 2.5 1 2.5 2.4v3.3c0 0.2-0.1 0.3-0.3 0.3-0.1 0-0.3-0.1-0.3-0.3z"/>
						<path id="&lt;Compound Path&gt;" fill-rule="evenodd" class="s1" d="m650 488.9c0-1.6 1.3-3 2.9-3 1.6 0 2.8 1.2 2.9 2.8v0.1c0 0.1-0.1 0.2-0.3 0.2h-4.9c0.1 1.3 1.1 2.3 2.3 2.3 0.8 0 1.6-0.4 2-1.1 0-0.1 0.2-0.1 0.4 0 0.1 0 0.1 0.2 0.1 0.4-0.6 0.8-1.5 1.3-2.5 1.3-1.6 0-2.9-1.3-2.9-3zm0.6-0.4h4.6c-0.2-1.2-1.2-2-2.3-2-1.1 0-2 0.8-2.3 2z"/>
						<path id="&lt;Compound Path&gt;" class="s1" d="m657.5 488.9c0-1.7 1.4-3 3.1-3 0.7 0 1.4 0.3 1.9 0.7 0.1 0.1 0.1 0.3 0 0.4-0.1 0.1-0.3 0.1-0.4 0-0.4-0.3-1-0.5-1.5-0.5-1.4 0-2.5 1.1-2.5 2.4 0 1.4 1.1 2.4 2.5 2.4 0.5 0 1.1-0.2 1.5-0.5 0.1-0.1 0.3 0 0.4 0.1 0.1 0.1 0.1 0.3 0 0.4-0.5 0.4-1.2 0.6-1.9 0.6-1.7 0-3.1-1.3-3.1-3z"/>
						<path id="&lt;Compound Path&gt;" class="s1" d="m664.9 483.6c0-0.1 0.1-0.3 0.3-0.3 0.2 0 0.3 0.2 0.3 0.3v5.8l3.6-3.5c0.1-0.1 0.3-0.1 0.4 0 0.1 0.1 0.1 0.3 0 0.4l-2.3 2.3 2.3 2.8c0.1 0.2 0.1 0.3 0 0.5q-0.1 0-0.2 0c-0.1 0-0.2 0-0.3-0.1l-2.3-2.8-1.2 1.3v1.3c0 0.2-0.1 0.3-0.3 0.3-0.2 0-0.3-0.1-0.3-0.3z"/>
					</g>
				</g>
			</g>
		</g>
	</g>
	<g id="Character">
		<g id="&lt;Group&gt;">
			<g id="&lt;Group&gt;">
				<g id="&lt;Group&gt;">
					<g id="&lt;Group&gt;">
						<g id="&lt;Group&gt;">
							<path id="&lt;Path&gt;" class="s10" d="m833.6 733.6c0 0-0.2 91.5-0.2 91.6-0.6 16.9-1.3 31.7-2.4 39.3q0 0.1 0 0.1c-0.5 2.9-0.9 4.7-1.4 5.2q-0.1 0.1-0.1 0.1c-5.2 3.3-140.4 3-145.1 1.4-4.7-1.5-0.5-15.1 4.7-19.3 5.3-4.2 57.1-27.2 57.1-27.2l1.1-91.5z"/>
							<path id="&lt;Path&gt;" class="s1" d="m834 807c0 0-0.6 18.1-0.6 18.2-0.6 16.9-1.3 31.7-2.4 39.3q0 0.1 0 0.1c-0.6 2.9-1.1 4.7-1.4 5.2q-0.1 0.1-0.1 0.1c-5.2 3.3-140.4 3-145.1 1.4-4.7-1.5-0.5-15.1 4.7-19.3 5.3-4.2 57.1-27.2 57.1-27.2l0.4-18.4z"/>
							<g id="&lt;Group&gt;">
								<g id="&lt;Group&gt;">
									<path id="&lt;Path&gt;" class="s6" d="m737.9 824.6c9.1-1.2 20 0.7 26.5 7.4 0.2 0.2-0.1 0.6-0.4 0.5-8.7-3.2-16.9-5.4-26.1-6.8-0.6-0.1-0.6-1 0-1.1z"/>
									<path id="&lt;Path&gt;" class="s6" d="m731.3 828.2c9-1.3 19.9 0.6 26.4 7.4 0.3 0.2-0.1 0.6-0.4 0.5-8.7-3.2-16.8-5.4-26-6.8-0.7-0.1-0.7-1 0-1.1z"/>
									<path id="&lt;Path&gt;" class="s6" d="m724.6 831.7c9.1-1.2 19.9 0.7 26.5 7.4 0.2 0.3-0.1 0.7-0.4 0.6-8.7-3.3-16.9-5.5-26.1-6.8-0.6-0.1-0.6-1.1 0-1.2z"/>
								</g>
								<path id="&lt;Path&gt;" class="s11" d="m684.4 871.3c4.7 1.6 139.9 1.9 145.1-1.4 1.9-1.2 3.1-20.9 3.9-44.7q0-0.4 0-0.8l-87.2-1.1v1.5c0 0-51.8 23-57.1 27.2-5.2 4.2-9.4 17.8-4.7 19.3z"/>
								<path id="&lt;Path&gt;" class="s5" d="m833.4 824.4v0.8c-0.8 23.8-2 43.5-3.9 44.7-2.4 1.5-31.7 2.2-63.4 2.5-37.9 0.3-79.1-0.2-81.7-1.1-4.7-1.5-0.5-15.1 4.7-19.3 5.3-4.2 57.1-27.2 57.1-27.2v-1.5l29.1 0.4z"/>
								<path id="&lt;Path&gt;" class="s6" d="m686 866.1c22.7-0.5 114.7-0.5 137.3 0.7 0.2 0 0.2 0.2 0 0.2-22.6 1-114.6 0.2-137.3-0.5-0.5 0-0.5-0.4 0-0.4z"/>
								<path id="&lt;Path&gt;" class="s12" d="m775.3 823.7c-2.6 14.5-6.4 35.9-9.2 48.7-37.9 0.3-79.1-0.2-81.7-1.1-4.7-1.5-0.5-15.1 4.7-19.3 5.3-4.2 57.1-27.2 57.1-27.2v-1.5z"/>
							</g>
						</g>
						<g id="&lt;Group&gt;">
							<path id="&lt;Path&gt;" class="s11" d="m841 826.3l-97.8-1.7c0 0-0.7-168.8 0.3-221.8 1.2-60.7 9.7-242.4 9.7-242.4l73 2c0 0 14.6 42.5 13.1 68.7-0.5 7.6-5.5 18.6-7.8 26.6l-11.7 150.4z"/>
							<g id="&lt;Group&gt;">
								<path id="&lt;Path&gt;" class="s6" d="m834.2 809c-2.5-0.5-5.2-0.6-7.7-0.8-2.9-0.3-5.8-0.6-8.7-0.8-5.5-0.4-11.1-0.6-16.7-0.8-11.2-0.4-22.4-0.6-33.6-0.6q-9.6 0.1-19.2 0.3c-0.3 0-0.3 0.4 0 0.4 11.1 0.8 22.2 1.2 33.4 1.8 11.1 0.5 22.2 1 33.3 1.1 3.2 0 6.4 0.1 9.6 0 3.2-0.1 6.5 0.2 9.6-0.2 0.2 0 0.3-0.3 0-0.4z"/>
								<path id="&lt;Path&gt;" class="s6" d="m753.4 715.7c-0.4-26.3-0.4-59-0.3-85.3 0-52.7 1.1-105.4 3.2-158.1 1.2-29.5 2.8-59 4.5-88.6 0-0.3-0.5-0.3-0.5 0-4.3 52.8-6.8 105.8-8.4 158.8-1.5 52.7-2 111.7-0.9 164.4 0.7 29.5 1.5 62.3 3.4 91.8 0 0.2 0.4 0.2 0.4 0-0.4-26.6-1-56.4-1.4-83z"/>
							</g>
						</g>
					</g>
				</g>
				<g id="&lt;Group&gt;">
					<g id="&lt;Group&gt;">
						<g id="&lt;Group&gt;">
							<path id="&lt;Path&gt;" class="s10" d="m728.8 736.3c0 0-3.2 88.3-3.2 88.4-0.5 16.9-1.3 31.7-2.4 39.3q0 0.1 0 0.1c-0.4 2.9-0.9 4.8-1.4 5.2q-0.1 0.1-0.1 0.1c-5.2 3.3-140.3 3.1-145 1.5-4.8-1.6-0.6-15.2 4.7-19.4 5.3-4.1 57-27.2 57-27.2l4.1-88.3z"/>
							<path id="&lt;Path&gt;" class="s1" d="m726.3 806.6c0 0-0.7 18-0.7 18.1-0.5 16.9-1.3 31.7-2.4 39.3q0 0.1 0 0.1c-0.6 2.9-1.1 4.8-1.4 5.2q-0.1 0.1-0.1 0.1c-5.2 3.3-140.3 3.1-145 1.5-4.8-1.6-0.6-15.2 4.7-19.4 5.3-4.1 57-27.2 57-27.2l0.5-18.4z"/>
							<g id="&lt;Group&gt;">
								<g id="&lt;Group&gt;">
									<path id="&lt;Path&gt;" class="s6" d="m630.2 824.1c9-1.2 19.9 0.7 26.4 7.4 0.3 0.3-0.1 0.6-0.4 0.5-8.7-3.2-16.9-5.4-26.1-6.7-0.6-0.1-0.6-1.1 0.1-1.2z"/>
									<path id="&lt;Path&gt;" class="s6" d="m623.5 827.7c9-1.2 19.9 0.7 26.5 7.4 0.2 0.3-0.2 0.6-0.4 0.5-8.7-3.2-16.9-5.4-26.1-6.8-0.7-0.1-0.6-1 0-1.1z"/>
									<path id="&lt;Path&gt;" class="s6" d="m616.9 831.3c9-1.3 19.9 0.7 26.4 7.4 0.3 0.2-0.1 0.6-0.4 0.5-8.7-3.2-16.9-5.4-26.1-6.8-0.6-0.1-0.6-1 0.1-1.1z"/>
								</g>
								<path id="&lt;Path&gt;" class="s5" d="m576.7 870.9c4.7 1.6 139.8 1.8 145-1.5 2-1.2 3.1-20.9 3.9-44.7q0-0.4 0-0.8l-87.2-1.1v1.5c0 0-51.7 23.1-57 27.2-5.3 4.2-9.5 17.8-4.7 19.4z"/>
								<path id="&lt;Path&gt;" class="s6" d="m578.2 865.6c22.8-0.5 114.7-0.4 137.3 0.8 0.2 0 0.2 0.1 0 0.1-22.6 1-114.5 0.2-137.3-0.5-0.5 0-0.5-0.4 0-0.4z"/>
							</g>
						</g>
						<g id="&lt;Group&gt;">
							<path id="&lt;Path&gt;" class="s11" d="m781.3 454.8c-0.1 0-43.6 125.2-45 148.5-1.2 19.7-4.2 223-4.2 223l-95.6-2.2c0 0 15.2-209.9 17.4-230.5 3.3-32.5 20.9-106.2 44.1-185.8 4.3-14.9 18.4-48.5 18.4-48.5l107.6 3c0 0-2.3 49.4-25.8 84.5 0 0-10.3 4.5-16.9 8z"/>
							<g id="&lt;Group&gt;">
								<path id="&lt;Path&gt;" class="s6" d="m727.2 808c-10.7-0.6-21.8-1.2-32.5-1.2-10.7-0.1-21.3-0.2-31.9 0.1-6.1 0.1-12.1 0.1-18.1 0.5-0.2 0-0.2 0.3 0 0.3 10.7 0.8 21.4 1 32.2 1.2 10.6 0.2 21.2 0.4 31.9 0.3 6-0.1 12-0.2 18-0.4 0.7 0 1-0.8 0.4-0.8z"/>
								<path id="&lt;Path&gt;" class="s6" d="m715.7 418.9c-4 12-7.3 24.2-10.9 36.3q-5.4 18.3-10.8 36.6c-6.9 23.6-17.5 63.2-22.9 87.2-5.3 24.1-20.7 214.6-20.7 217.7 0 0.3 0.5 0.3 0.5 0 3-22.1 19.5-207.4 21.9-216 6.6-23.7 13.4-56.8 20.3-80.4 3.9-13.5 7.8-26.9 11.7-40.4 4-13.6 8.1-27.1 11.6-40.8 0.1-0.4-0.6-0.6-0.7-0.2z"/>
								<path id="&lt;Path&gt;" class="s6" d="m755.8 447.3c5 0.9 10 1.6 15.1 1.6 5.1 0.1 10-0.6 15.1-1.1 4.8-0.4 9.7 0.3 14.5 0.5 4.9 0.2 9.8-0.1 14.6-1.4 0.2 0 0.3 0.3 0.1 0.4-4.7 1.3-9.5 2.5-14.3 3.1-5.1 0.5-10-0.3-15.1 0-5.1 0.2-10.2 0.9-15.4 0.4-5-0.4-10-1.4-14.7-3.2-0.2 0-0.1-0.3 0.1-0.3z"/>
								<path id="&lt;Path&gt;" class="s6" d="m747.1 556.4c1.1-3.8 2.2-7.7 3.4-11.5 2.4-7.8 4.9-15.6 7.5-23.3 5.3-15.3 10.3-30.7 15.8-45.9 3.2-8.6 6-17.3 9.6-25.8 0.1-0.2 0.4-0.1 0.4 0.2-2 7.9-4.6 15.6-7 23.4-2.4 7.7-4.9 15.5-7.4 23.2-5.1 15.4-10 30.8-15.5 46q-2.3 6.4-4.8 12.8c-1.7 4.3-3 8.8-5 13-0.1 0.2-0.4 0.1-0.4-0.2 0.9-4 2.2-7.9 3.4-11.9z"/>
							</g>
							<path id="&lt;Path&gt;" class="s6" d="m778.7 426.8c0.7-6.6 2.9-27.6 3.3-31.5 0.2-1.9 1-13.1 0.2-13.2-3.9-0.5-8-0.1-12-0.2q-5.9-0.1-11.8-0.4c-7.9-0.4-15.8-1.2-23.7-2.3-1.2-0.1-1.4 1.5-0.2 1.7q11.9 1.8 24 2.6c3.9 0.3 19 1.1 22.5 0.7 0 1.6-1 7.4-1.2 8.7-1.6 0-3.3 0.2-5 0.4q-2.8 0.1-5.6 0.2-5.8 0.1-11.6-0.1c-7.4-0.4-15-1.1-22.3-2.4-0.3-0.1-0.3 0.3-0.1 0.3 7.6 1.7 15.1 2.8 22.8 3.2q5.4 0.2 10.8 0 3-0.1 5.9-0.3c1.6-0.1 3.4-0.1 5-0.5q0 0.4-0.1 0.8c-0.4 3.6-2.9 25.2-3.7 32.3-4 1.8-23.5 10.8-25.8 9.6-4.3-2.4-19.2-12.4-23.6-14.8q0.9-9.6 2.6-19.1 0.8-4.9 1.8-9.7c0.7-3.3 1.7-6.7 1.9-10 0-0.3-0.5-0.5-0.7-0.2q-0.1 0.2-0.3 0.4 0 0.1 0 0.2c-1.3 2.7-2 5.9-2.8 8.8q-1.2 4.9-2.2 9.9-2 10-3.1 20.1c-0.1 0.4 0.1 1 0.5 1.2 6.6 3.8 24.5 15.4 26.2 15.7 3.2 0.6 26.9-9.7 27.5-10.1 0.8-0.5 0.7-1.2 0.8-2z"/>
							<path id="&lt;Path&gt;" class="s6" d="m806.4 421.7c-0.6-5.7-2.3-23.8-2.6-27.1-0.1-1.6-0.8-11.2-0.3-11.2 2.2-0.3 4.6 0.3 6.8 0.5q3.4 0.3 6.7 0.4 6.8 0.2 13.5-0.4c0.7-0.1 0.9 1.3 0.2 1.4q-6.8 0.7-13.7 0.7c-2.2 0-10.8-0.3-12.8-0.8 0 1.3 0.7 6.4 0.8 7.5 1 0.1 2 0.4 2.9 0.6q1.6 0.3 3.2 0.6 3.3 0.5 6.6 0.6c4.3 0.2 8.5 0 12.7-0.7 0.2 0 0.2 0.3 0 0.3-4.2 1-8.5 1.5-12.9 1.3q-3.1-0.1-6.2-0.6-1.6-0.3-3.3-0.7c-0.9-0.2-2-0.3-2.9-0.7q0.1 0.3 0.1 0.6c0.3 3.2 2.1 21.8 2.8 27.9 2.3 1.8 13.6 10.7 14.8 9.8 2.5-1.8 10.8-9.4 13.2-11.2q-0.7-8.2-1.8-16.4-0.6-4.3-1.3-8.5c-0.4-2.8-1.1-5.7-1.2-8.6 0-0.2 0.2-0.4 0.3-0.1q0.1 0.1 0.2 0.3 0.1 0.1 0 0.2c0.8 2.4 1.3 5.2 1.8 7.7q0.8 4.3 1.5 8.6 1.3 8.7 2.2 17.4c0 0.3-0.1 0.8-0.3 0.9-3.7 2.9-13.7 11.7-14.6 11.8-1.8 0.3-15.6-10-16-10.4-0.4-0.4-0.4-1-0.4-1.7z"/>
							<path id="&lt;Path&gt;" class="s6" d="m796.1 408.6c-0.1-9.9-0.4-19.8-1-29.7-0.4-5.7-0.8-11.4-1.3-17-0.1-0.2-0.4-0.3-0.4 0 0.5 9.9 1 19.9 1.3 29.9 0.4 9.9 0.4 19.8 0.5 29.7 0.1 5.7 0.1 11.4 0.1 17.1 0 0.2 0.4 0.2 0.4 0 0.5-10 0.6-20 0.4-30z"/>
						</g>
					</g>
				</g>
			</g>
			<g id="&lt;Group&gt;">
				<g id="&lt;Group&gt;">
					<g id="&lt;Group&gt;">
						<path id="&lt;Path&gt;" class="s10" d="m769.8 243.6c-0.1 2.1-7.3 17.3-16.7 18.7-3.1 0.4-6.2-16.3-6.2-16.3l-0.5-1.2-7.2-16.4 17.7-16.9 2.6-2.3c0 0 1.7 4.6 3.7 10.4q0.2 0.4 0.3 0.8 0.2 0.5 0.3 1 0.5 1.3 1 2.6c0.2 0.7 0.4 1.3 0.6 2.1q0.4 1 0.7 2.1c2.1 7 3.8 14.5 3.7 15.4z"/>
						<path id="&lt;Path&gt;" class="s6" d="m763.2 219.6c-2.3 14.7-12.2 22.4-16.8 25.2l-7.2-16.4 17.7-16.9 2.6-2.3c0 0 1.7 4.6 3.7 10.4z"/>
					</g>
					<g id="&lt;Group&gt;">
						<g id="&lt;Group&gt;">
							<path id="&lt;Path&gt;" class="s6" d="m751.9 175.5c0.3 1.1 0 2.4-1 3.2-1.2 0.9-3 0.8-4-0.3q-0.3 0.5-0.8 0.9c-1.3 1.1-3.2 0.9-4.4-0.3q-0.2 0.5-0.7 0.8c-1.2 1-3.1 0.8-4.1-0.4-0.5-0.6-0.7-1.3-0.7-1.9-1.2 0.8-3 0.6-3.9-0.6q-0.4-0.5-0.6-1.1-0.1 0.1-0.2 0.1c-1.3 1.1-3.1 0.8-4.1-0.4-0.7-0.8-0.8-1.8-0.6-2.7-1.2 0.6-2.7 0.3-3.6-0.8-0.7-0.9-0.8-2-0.4-2.9-0.7-0.2-1.4-0.6-1.9-1.2-0.5-0.7-0.7-1.6-0.6-2.4-0.9-0.1-1.6-0.5-2.2-1.2-0.9-1.2-0.9-2.8-0.1-3.9q-0.5-0.3-0.9-0.8c-0.9-1.2-0.8-2.8 0.2-3.9q-0.7-0.3-1.1-0.9c-1.2-1.4-1-3.4 0.5-4.6q0.4-0.3 0.9-0.5-0.2-0.1-0.4-0.3c-1-1.3-0.8-3.2 0.5-4.2q0.7-0.5 1.5-0.6c-0.9-1.4-0.7-3.3 0.7-4.3 0.5-0.4 1-0.7 1.6-0.7-0.4-1.3 0-2.7 1.1-3.6 0.8-0.6 1.8-0.8 2.8-0.6 0-0.8 0.4-1.6 1.1-2.1 0.7-0.6 1.5-0.8 2.3-0.6 0-1 0.4-2 1.2-2.6 1.2-1 2.7-1 3.9-0.2q0.3-0.6 0.8-1.1c1.2-1 2.9-0.9 3.9 0.2q0.3-0.7 0.9-1.1c1.4-1.2 3.5-0.9 4.6 0.5q0.2 0.3 0.4 0.6 0.1-0.2 0.4-0.3c1.4-1.2 3.4-0.9 4.5 0.5q0.3 0.3 0.4 0.7 0.3-0.4 0.7-0.7c1.4-1.1 3.4-0.9 4.6 0.5 0.5 0.7 0.8 1.6 0.6 2.5 1.1-0.2 2.3 0.3 3 1.2 0.6 0.7 0.8 1.5 0.7 2.3 1.2-0.5 2.6-0.2 3.5 0.9 0.7 0.8 0.8 1.9 0.5 2.8 0.8 0 1.6 0.4 2.2 1.1 0.8 1.1 0.9 2.4 0.2 3.5 0.9 0 1.7 0.4 2.3 1.2 1 1.2 1 2.9 0 4.1q0.5 0.3 0.8 0.7c1 1.3 0.8 3.1-0.5 4.2q-0.4 0.3-0.9 0.5 0.1 0 0.1 0.1c1.2 1.4 0.9 3.5-0.5 4.6q-0.4 0.3-0.8 0.5 0.3 0.2 0.6 0.5c1 1.3 0.8 3.1-0.5 4.2-0.6 0.5-1.4 0.7-2.2 0.6 0.2 1-0.2 2.1-1.1 2.8-0.6 0.5-1.4 0.7-2.1 0.6 0.5 1.3 0.2 2.9-1 3.8-1.1 0.9-2.6 0.9-3.7 0.2 0.1 1-0.3 2-1.1 2.7-1 0.7-2.3 0.8-3.3 0.2z"/>
						</g>
						<g id="&lt;Group&gt;">
							<path id="&lt;Path&gt;" class="s6" d="m793.3 214.7c0.4 1.1 0 2.4-1 3.2-1.2 0.9-2.9 0.8-4-0.3q-0.3 0.5-0.8 0.9c-1.3 1.1-3.2 0.9-4.4-0.3q-0.2 0.5-0.6 0.8c-1.3 1-3.2 0.8-4.2-0.4-0.4-0.6-0.6-1.2-0.6-1.9-1.3 0.9-3 0.6-4-0.6q-0.4-0.5-0.5-1.1-0.1 0.1-0.3 0.1c-1.2 1.1-3.1 0.8-4.1-0.4-0.6-0.8-0.8-1.8-0.5-2.7-1.3 0.6-2.8 0.3-3.7-0.8-0.7-0.8-0.8-2-0.4-2.9-0.7-0.2-1.3-0.6-1.8-1.2-0.6-0.7-0.8-1.6-0.7-2.4-0.8-0.1-1.6-0.5-2.2-1.2-0.9-1.2-0.9-2.8-0.1-3.9q-0.5-0.3-0.9-0.8c-0.9-1.2-0.8-2.8 0.2-3.9q-0.6-0.3-1.1-0.9c-1.1-1.4-0.9-3.4 0.5-4.5q0.4-0.4 0.9-0.6-0.2-0.1-0.3-0.3c-1.1-1.3-0.9-3.2 0.4-4.2q0.7-0.5 1.5-0.6c-0.9-1.4-0.6-3.3 0.7-4.3 0.5-0.4 1.1-0.7 1.6-0.7-0.4-1.3 0-2.7 1.1-3.6 0.8-0.6 1.9-0.8 2.8-0.6 0-0.8 0.4-1.6 1.1-2.1 0.7-0.6 1.5-0.8 2.3-0.6 0-1 0.4-2 1.3-2.6 1.1-0.9 2.7-1 3.8-0.2q0.3-0.6 0.9-1.1c1.1-1 2.8-0.9 3.9 0.2q0.3-0.7 0.8-1.1c1.4-1.2 3.5-0.9 4.6 0.5q0.2 0.3 0.4 0.6 0.2-0.2 0.4-0.3c1.4-1.2 3.4-0.9 4.6 0.5q0.2 0.3 0.4 0.7 0.2-0.4 0.6-0.7c1.4-1.1 3.5-0.9 4.6 0.5 0.6 0.7 0.8 1.6 0.7 2.5 1.1-0.2 2.2 0.3 2.9 1.2 0.6 0.7 0.8 1.5 0.7 2.3 1.2-0.5 2.7-0.2 3.5 0.9 0.7 0.8 0.8 1.9 0.5 2.8 0.8 0 1.7 0.4 2.2 1.1 0.9 1.1 0.9 2.4 0.2 3.5 0.9 0 1.8 0.4 2.4 1.2 0.9 1.2 0.9 2.9-0.1 4.1q0.5 0.3 0.8 0.7c1.1 1.3 0.8 3.1-0.4 4.2q-0.5 0.3-1 0.5 0.1 0 0.2 0.1c1.1 1.4 0.9 3.5-0.6 4.6q-0.3 0.3-0.8 0.5 0.3 0.2 0.6 0.5c1 1.3 0.8 3.1-0.5 4.2-0.6 0.5-1.4 0.7-2.2 0.6 0.2 1-0.2 2.1-1 2.8-0.7 0.5-1.4 0.7-2.2 0.6 0.5 1.3 0.2 2.9-1 3.8-1.1 0.9-2.6 0.9-3.7 0.2 0.1 1-0.3 2-1.1 2.7-0.9 0.7-2.2 0.8-3.3 0.2z"/>
						</g>
						<path id="&lt;Path&gt;" class="s10" d="m712.2 197.9c-6.9 31.9 11.5 39.5 18.3 41 6.3 1.3 27.7 5.1 37.9-25.9 10.2-30.9-2.5-44.1-16.6-47.9-14.1-3.8-32.7 1-39.6 32.8z"/>
						<g id="&lt;Group&gt;">
							<path id="&lt;Path&gt;" class="s6" d="m717.2 194.8c0.7 0.1 1.5-0.1 2.2-0.1 0.9-0.1 1.6 0 2.3-0.6 0.4-0.3 0.4-1 0.2-1.4-0.6-0.9-1.7-1.1-2.7-1.1-1.2 0.1-2 0.4-2.9 1.1-0.8 0.8-0.1 2.1 0.9 2.1z"/>
							<path id="&lt;Path&gt;" class="s6" d="m738.7 198c-0.8-0.2-1.4-0.5-2.1-0.7-0.8-0.3-1.5-0.5-2-1.2-0.3-0.4-0.2-1.1 0.2-1.4 0.8-0.8 1.9-0.6 2.9-0.3 1.1 0.4 1.8 0.9 2.4 1.8 0.6 1-0.4 2.1-1.4 1.8z"/>
							<g id="&lt;Group&gt;">
								<g id="&lt;Group&gt;">
									<path id="&lt;Path&gt;" class="s6" d="m733.2 202.6c0.1 0 0.2 0.2 0.2 0.3-0.5 2.1-0.6 4.7 1.2 5.7 0.1 0.1 0.1 0.2 0 0.2-2.4-0.8-2.1-4.2-1.4-6.2z"/>
									<path id="&lt;Path&gt;" class="s6" d="m735.6 200.7c3.5 0.3 2.6 7.4-0.7 7.1-3.2-0.3-2.3-7.4 0.7-7.1z"/>
								</g>
								<path id="&lt;Path&gt;" class="s6" d="m736.9 201.2c0.6 0.5 1.1 1.3 1.8 1.5 0.9 0.2 1.7-0.5 2.3-1.1 0.1-0.1 0.1 0 0.1 0-0.1 1.4-0.8 2.7-2.3 2.8-1.4 0-2.2-1.3-2.4-2.8 0-0.2 0.3-0.6 0.5-0.4z"/>
							</g>
							<g id="&lt;Group&gt;">
								<g id="&lt;Group&gt;">
									<path id="&lt;Path&gt;" class="s6" d="m721.1 200c0 0-0.2 0.1-0.2 0.2-0.2 2.2-0.8 4.7-2.9 5.2 0 0 0 0.1 0 0.1 2.5 0 3.3-3.3 3.1-5.5z"/>
									<path id="&lt;Path&gt;" class="s6" d="m719.4 197.5c-3.5-0.7-4.6 6.4-1.4 7 3.2 0.7 4.4-6.4 1.4-7z"/>
								</g>
								<path id="&lt;Path&gt;" class="s6" d="m717.9 197.7c-0.7 0.3-1.3 0.9-2 0.9-0.8-0.1-1.2-1-1.6-1.8 0-0.1-0.1 0-0.1 0.1-0.3 1.3-0.1 2.8 1.2 3.3 1.1 0.4 2.2-0.6 2.7-1.9 0.1-0.3 0-0.7-0.2-0.6z"/>
							</g>
							<path id="&lt;Path&gt;" class="s6" d="m730.9 221.2c-0.6 0.5-1.2 1.2-2 1.2-0.7 0-1.6-0.5-2.3-0.8-0.1 0-0.1 0-0.1 0.1 0.5 0.9 1.7 1.5 2.7 1.4 1-0.1 1.6-0.9 1.9-1.8 0.1-0.1-0.1-0.2-0.2-0.1z"/>
							<g id="&lt;Group&gt;">
								<path id="&lt;Path&gt;" class="s6" d="m722.8 212c0 0-0.9 3.2-1.1 4.8 0 0.1 0.3 0.2 0.9 0.3q0 0.1 0 0c2.7 0.8 5.6 0.3 7.6-1.7 0.1-0.1-0.1-0.3-0.2-0.3-2.3 1.3-4.6 1.3-7 1-0.1-0.4 1.7-5.4 1.5-5.5-0.9-0.2-2.6 0.2-3.7 0.3 1.7-6.7 4.5-13.1 6.1-19.9 0.1-0.2-0.3-0.4-0.4-0.1-3.4 6.5-5.5 14.2-7.4 21.1-0.3 0.9 3.1 0.2 3.7 0z"/>
							</g>
							<g id="&lt;Group&gt;">
								<path id="&lt;Path&gt;" class="s6" d="m722.8 216.6c0 0 1.1 2.3 3 3.4 0.7 0.4 1.5 0.7 2.4 0.7 1.8-0.2 2.2-1.7 2.1-3.2 0-1.2-0.3-2.2-0.3-2.2 0 0-3.1 1.8-7.2 1.3z"/>
								<path id="&lt;Path&gt;" class="s13" d="m725.8 220c0.7 0.4 1.5 0.7 2.4 0.7 1.8-0.2 2.2-1.7 2.1-3.2-1.9-0.2-4 0.7-4.5 2.5z"/>
							</g>
						</g>
						<g id="&lt;Group&gt;">
							<path id="&lt;Path&gt;" class="s6" d="m737.4 169c0 0-1.9 4.6-0.8 8.4 2.4 7.6 11.3 7 13.8 10.2 2.4 3.1 0.6 8.5 2.8 11.5 2.9 4.2 7.8 3.4 8 6 0.2 2.5 0.7 10.7 3.7 12.1 3 1.5 25-49-16.3-53.2 0 0-5.3-3.2-14.7 0-10.4 3.5-16.9 18.9-16.9 18.9 0 0 0.2-0.2 1.8-1.2 2.2-1.5 3.2-3 4.9-4 2.5-1.4 3.7-0.6 6.3-2 4-2.1 7.4-6.7 7.4-6.7z"/>
							<path id="&lt;Path&gt;" class="s6" d="m738.4 166.8c-0.9 1.9-1.7 4-2.1 6.1-0.5 2.1-0.7 4.3 0 6.3 0.7 1.9 2.3 3.4 4.2 4.4 1.8 1 3.9 1.5 5.9 2.6 1 0.6 1.9 1.4 2.5 2.5 0.5 1.1 0.6 2.3 0.7 3.4 0.2 2.1 0.3 4.3 1.5 6 1.1 1.7 3 2.9 5.2 3.1 2 0.3 4.4 0.1 6.3 1.3-2-1.1-4.2-0.6-6.4-0.8-2.2-0.1-4.4-1.3-5.8-3.1-1.4-1.9-1.5-4.4-1.7-6.5-0.1-1-0.2-2.1-0.7-2.9-0.4-0.9-1.2-1.6-2.1-2.1-1.8-1.1-3.9-1.6-5.9-2.7-1-0.6-1.9-1.2-2.7-2-0.8-0.8-1.5-1.8-1.8-3-0.6-2.2-0.3-4.5 0.3-6.6 0.6-2.1 1.5-4.1 2.6-6z"/>
							<path id="&lt;Path&gt;" class="s6" d="m737.3 168.5c-0.6 2-1.6 3.8-2.8 5.5-1.1 1.6-2.8 3.1-4.8 3.9-1 0.4-2 0.5-3 0.7-0.9 0.2-1.8 0.6-2.4 1.2-0.6 0.7-1.3 1.6-2.1 2.2-0.9 0.6-1.9 1-2.9 1.1 1-0.4 1.8-0.8 2.5-1.5 0.8-0.7 1.3-1.5 1.9-2.3 0.8-1 1.8-1.3 2.8-1.6 1.1-0.3 2-0.4 2.9-0.7 1.7-0.7 3.2-2 4.5-3.6 1.2-1.5 2.4-3.1 3.4-4.9z"/>
						</g>
						<g id="&lt;Group&gt;">
							<g id="&lt;Group&gt;">
								<path id="&lt;Path&gt;" class="s10" d="m758.8 210.4c0 0 8.4-9.2 12.6-6.1 4.3 3.1-2.9 17-8.5 18.3-5.7 1.4-7-3.8-7-3.8z"/>
								<path id="&lt;Path&gt;" class="s6" d="m769.3 208.2c0.1 0 0.1 0.2 0 0.2-4 1-6.4 4.3-8.3 7.7 1.3-1.2 2.9-1.8 4.6-0.2 0.1 0 0 0.2-0.1 0.2-1.5-0.6-2.6-0.4-3.8 0.7-0.9 0.7-1.5 1.8-2.2 2.7-0.2 0.3-0.8 0.1-0.6-0.3q0 0 0-0.1c0.5-4.8 5.1-11 10.4-10.9z"/>
							</g>
						</g>
					</g>
				</g>
				<g id="&lt;Group&gt;">
					<path id="&lt;Path&gt;" class="s5" d="m721.2 330l-4.8 29.3 109.9 2.9c0 0-13.8-84-40.3-112.6-14.3-15.4-30.5-12.1-43.5 4.7-4.7 5.9-30.4 36.3-29.5 52.8 0.9 14.6 8.2 22.9 8.2 22.9z"/>
					<path id="&lt;Compound Path&gt;" class="s1" d="m749.2 283.1c-0.6 1.7-1.1 3.5-1.3 5.4 1.2-1.5 2-3.2 2.7-4.9 0.6-1.7 1.2-3.5 1.3-5.4-1.2 1.5-2 3.2-2.7 4.9zm-11.3 75q-0.3 0.9-0.6 1.8h1.4q0.3-0.6 0.5-1.3c0.7-1.7 1.2-3.5 1.4-5.4-1.2 1.5-2 3.2-2.7 4.9zm42.5-7.7c-0.6 1.7-1.1 3.5-1.3 5.4 1.2-1.5 2-3.2 2.7-4.9 0.6-1.7 1.2-3.5 1.3-5.5-1.2 1.6-2 3.2-2.7 5zm22-56.6c-1.8-0.7-3.6-1.2-5.5-1.3 1.5 1.2 3.2 2 4.9 2.6 1.8 0.7 3.6 1.2 5.5 1.4-1.5-1.2-3.2-2-4.9-2.7zm-66.7 19.2c-1.7-0.6-3.5-1.2-5.4-1.3 1.5 1.2 3.2 2 4.9 2.7 1.8 0.6 3.5 1.1 5.5 1.3-1.6-1.2-3.2-2-5-2.7zm14.9-66.9q-0.1-0.1-0.1-0.1-0.5 0.4-1.1 0.9c0.7 1.6 1.6 3.1 2.8 4.5-0.3-1.9-0.9-3.6-1.6-5.3zm26.8 59.5c-0.8-1.7-1.7-3.4-2.9-4.8 0.2 1.9 0.8 3.6 1.6 5.4 0.8 1.6 1.6 3.3 2.9 4.7-0.2-1.9-0.9-3.6-1.6-5.3zm29.6 22.8c-1.7 0.7-3.3 1.6-4.8 2.9 1.9-0.3 3.7-0.9 5.4-1.6 1.7-0.8 3.3-1.7 4.8-2.9-2 0.2-3.7 0.8-5.4 1.6zm-49.9 5c-1.7 0.8-3.3 1.7-4.8 3 1.9-0.3 3.7-0.9 5.4-1.6 1.7-0.8 3.3-1.7 4.8-3-2 0.3-3.7 0.9-5.4 1.6zm18.7-72.1c-1.7 0.7-3.3 1.6-4.8 2.9 2-0.3 3.7-0.9 5.4-1.6 1.7-0.8 3.3-1.7 4.8-2.9-1.9 0.2-3.7 0.8-5.4 1.6z"/>
				</g>
				<g id="&lt;Group&gt;">
					<g id="&lt;Group&gt;">
						<g id="&lt;Group&gt;">
							<path id="&lt;Path&gt;" class="s10" d="m764.9 268.2c-10.1 18-53.7 70.6-73.2 73.7-14.2 2.2-36.2-26.9-51.6-39.4-4.8-3.9 39.2-38.1 42.8-33.3 8.2 11.2 12.2 15.8 13 15.3 4.7-3 28-19.1 52.1-35.6 20-13.7 29.8-3.5 16.9 19.3z"/>
							<g id="&lt;Group&gt;">
								<path id="&lt;Path&gt;" class="s10" d="m620.4 211.9c-4.2 5 9.2 14.2 9.2 14.2 0 0-4.5-0.6-8 2.1-4 3-1 10.5-1 10.5 0 0-4.7 0.4-8.1 3.5-3.5 3.3-1.6 11.4-1.6 11.4 0 0-4.1 2.7-5.2 7.5-3.1 13.7 25 36.6 34.4 41.4l43.3-31.6c0 0-11.2-34.4-22.3-44.1-6.2-5.4-34.4-22.7-40.7-14.9z"/>
								<g id="&lt;Group&gt;">
									<path id="&lt;Path&gt;" class="s6" d="m629.9 226.1c8.2 3.4 15.6 8.8 22.7 14.2 0.2 0.1 0 0.3-0.2 0.2-7-5.4-15.6-9-22.8-14.1-0.1-0.1 0-0.4 0.3-0.3z"/>
									<path id="&lt;Path&gt;" class="s6" d="m620.9 238.6c1.8 0.9 3.4 2.3 4.9 3.6q2.5 2.1 4.9 4.2 4.9 4.3 9.5 8.9c0.2 0.1 0 0.4-0.2 0.2q-4.8-4.3-9.8-8.4-2.5-2-5.1-4c-1.5-1.2-3.3-2.4-4.6-4-0.2-0.2 0.1-0.6 0.4-0.5z"/>
									<path id="&lt;Path&gt;" class="s6" d="m611 253.7c1.6 0.6 3 2.2 4.3 3.4q2.2 2 4.3 4c3 2.7 5.9 5.3 8.9 7.9 0.2 0.1 0 0.3-0.2 0.2-3.1-2.6-6.2-5.1-9.2-7.7q-2.3-1.9-4.5-3.8c-1.3-1.1-3-2.4-3.7-3.9-0.1-0.1 0-0.1 0.1-0.1z"/>
								</g>
							</g>
							<g id="&lt;Group&gt;">
								<path id="&lt;Path&gt;" class="s6" d="m695.2 284.1c4.2 4.2 7.2 9.5 9.7 14.9-3.7-4.7-6.6-9.8-9.7-14.9z"/>
							</g>
						</g>
					</g>
					<g id="&lt;Group&gt;">
						<path id="&lt;Path&gt;" class="s5" d="m698 281.2l24.9 48.4c0 0 29.7-36.1 43.9-60.5 14.2-24.3 4-34.6-19.4-22.3-23.5 12.4-49.4 34.4-49.4 34.4z"/>
						<path id="&lt;Compound Path&gt;" class="s1" d="m714.9 286.6c-1.6 0.8-3.3 1.7-4.8 2.9 2-0.2 3.7-0.8 5.4-1.6 1.7-0.8 3.3-1.6 4.8-2.9-1.9 0.2-3.7 0.9-5.4 1.6zm35.7-40.5q-0.2-0.4-0.3-0.7-0.7 0.3-1.3 0.6 0.1 0.3 0.2 0.6c0.8 1.7 1.7 3.4 3 4.8-0.3-1.9-0.9-3.6-1.6-5.3zm-14.9 66.9c-1.7-0.6-3.5-1.2-5.4-1.3 1.4 1.1 3 1.9 4.7 2.6q0.5-0.6 0.9-1.2-0.1 0-0.2-0.1zm13.5-29.9c-0.6 1.7-1.1 3.5-1.3 5.4 1.2-1.5 2-3.2 2.7-4.9 0.6-1.7 1.2-3.5 1.3-5.4-1.2 1.5-2 3.2-2.7 4.9z"/>
						<path id="&lt;Path&gt;" class="s6" d="m708.9 277.5c0.8 1.6 1.9 3.2 2.9 4.8 0.9 1.6 1.8 3.2 2.7 4.8q2.5 4.8 5.2 9.5c3.5 6.3 7.2 12.6 10.3 19.2 0.1 0.1-0.1 0.2-0.1 0.1-4.2-5.8-7.8-12.1-11.3-18.5q-2.7-4.8-5.2-9.7-1.2-2.4-2.4-5c-0.8-1.7-1.4-3.5-2.3-5.1-0.1-0.2 0.2-0.3 0.2-0.1z"/>
						<g id="&lt;Group&gt;">
							<path id="&lt;Path&gt;" class="s6" d="m762.2 276.6c-2.9 4.7-6 9.3-9.1 13.8-3.1 4.6-6.3 9-9.5 13.5-3.2 4.5-6.6 8.8-9.9 13.2-3.5 4.3-6.9 8.6-10.7 12.6l-0.2 0.3-0.2-0.3q-1.1-2.4-2.2-4.9 1.4 2.3 2.7 4.7l-0.4-0.1q5-6.5 9.9-13.1l9.7-13.3c3.4-4.4 6.5-8.9 9.9-13.2q4.9-6.6 10-13.2z"/>
							<path id="&lt;Path&gt;" class="s6" d="m761.3 281.1c-0.5 1.2-1.5 2.2-2.4 3.1q-0.7 0.7-1.6 1.2-0.8 0.6-1.7 1c2-1.8 3.9-3.3 5.7-5.3z"/>
						</g>
					</g>
				</g>
			</g>
		</g>
	</g>
</svg>